<svg xmlns="http://www.w3.org/2000/svg" xmlns:xlink="http://www.w3.org/1999/xlink" xmlns:lucid="lucid" width="2738" height="1023"><g transform="translate(-599 -185)" lucid:page-tab-id="0_0"><path d="M779.68 375.56h255.88" stroke="#000" stroke-width="3" fill="none"/><path d="M779.7 377.04h-1.52v-2.95h1.54z" stroke="#000" stroke-width=".05"/><path d="M1051.32 375.56l-14.26 4.64v-9.27z" stroke="#000" stroke-width="3"/><path d="M636.18 316.56a6 6 0 0 1 6-6h130a6 6 0 0 1 6 6v118a6 6 0 0 1-6 6h-130a6 6 0 0 1-6-6z" stroke="#000" stroke-opacity="0" stroke-width="2" fill="#fff7a1"/><path d="M656.18 336.56a6 6 0 0 1 6-6h130a6 6 0 0 1 6 6v118a6 6 0 0 1-6 6h-130a6 6 0 0 1-6-6z" stroke="#000" stroke-opacity="0" stroke-width="2" fill="#fc9432"/><path d="M676.18 356.56a6 6 0 0 1 6-6h130a6 6 0 0 1 6 6v118a6 6 0 0 1-6 6h-130a6 6 0 0 1-6-6zM1056.18 316.56a6 6 0 0 1 6-6h130a6 6 0 0 1 6 6v118a6 6 0 0 1-6 6h-130a6 6 0 0 1-6-6z" stroke="#000" stroke-opacity="0" stroke-width="2" fill="#ffe342"/><path d="M1076.18 336.56a6 6 0 0 1 6-6h130a6 6 0 0 1 6 6v118a6 6 0 0 1-6 6h-130a6 6 0 0 1-6-6z" stroke="#000" stroke-opacity="0" stroke-width="2" fill="#fff7a1"/><path d="M1096.18 356.56a6 6 0 0 1 6-6h130a6 6 0 0 1 6 6v118a6 6 0 0 1-6 6h-130a6 6 0 0 1-6-6z" stroke="#000" stroke-opacity="0" stroke-width="2" fill="#fc9432"/><path d="M936.18 716.56a6 6 0 0 1 6-6h130a6 6 0 0 1 6 6v118a6 6 0 0 1-6 6h-130a6 6 0 0 1-6-6z" stroke="#000" stroke-opacity="0" stroke-width="2" fill="#ba23f6"/><path d="M956.18 736.56a6 6 0 0 1 6-6h130a6 6 0 0 1 6 6v118a6 6 0 0 1-6 6h-130a6 6 0 0 1-6-6z" stroke="#000" stroke-opacity="0" stroke-width="2" fill="#e08fff"/><path d="M976.18 756.56a6 6 0 0 1 6-6h130a6 6 0 0 1 6 6v118a6 6 0 0 1-6 6h-130a6 6 0 0 1-6-6z" stroke="#000" stroke-opacity="0" stroke-width="2" fill="#fbf0ff"/><path d="M1256.18 716.56a6 6 0 0 1 6-6h130a6 6 0 0 1 6 6v118a6 6 0 0 1-6 6h-130a6 6 0 0 1-6-6z" stroke="#000" stroke-opacity="0" stroke-width="2" fill="#54c45e"/><path d="M1276.18 736.56a6 6 0 0 1 6-6h130a6 6 0 0 1 6 6v118a6 6 0 0 1-6 6h-130a6 6 0 0 1-6-6z" stroke="#000" stroke-opacity="0" stroke-width="2" fill="#c3f7c8"/><path d="M1296.18 756.56a6 6 0 0 1 6-6h130a6 6 0 0 1 6 6v118a6 6 0 0 1-6 6h-130a6 6 0 0 1-6-6z" stroke="#000" stroke-opacity="0" stroke-width="2" fill="#e3fae3"/><path d="M1017.68 632.06h307" stroke="#000" stroke-width="3" stroke-linecap="round" fill="none"/><path d="M1016.25 693.07V670.6a.04.04 0 0 0-.04-.04.04.04 0 0 1-.02-.03v-38.47" stroke="#000" stroke-width="3" fill="none"/><path d="M1016.25 707.56l-7.5-13h15z" stroke="#000" stroke-width="3"/><path d="M1016.18 632.1v-1.54" stroke="#000" stroke-width="3" fill="none"/><path d="M1327.18 693.07v-61" stroke="#3a414a" stroke-width="3" fill="none"/><path d="M1327.18 707.56l-7.5-13h15z" stroke="#3a414a" stroke-width="3" fill="#3a414a"/><path d="M1327.18 632.1v-1.54" stroke="#3a414a" stroke-width="3" fill="none"/><path d="M1167.18 482.06v127.88" stroke="#000" stroke-width="3" fill="none"/><path d="M1168.65 482.1h-2.95v-1.54h2.95z" stroke="#000" stroke-width=".05"/><path d="M1167.18 625.7l-4.64-14.26h9.27z" stroke="#000" stroke-width="3"/><path d="M616.18 516.56a6 6 0 0 1 6-6h228a6 6 0 0 1 6 6v48a6 6 0 0 1-6 6h-228a6 6 0 0 1-6-6z" fill="none"/><use xlink:href="#a" transform="matrix(1,0,0,1,616.1764705882356,510.5625) translate(64.22222222222223 32)"/><use xlink:href="#b" transform="matrix(1,0,0,1,616.1764705882356,510.5625) translate(12.444444444444429 80)"/><use xlink:href="#c" transform="matrix(1,0,0,1,616.1764705882356,510.5625) translate(47.94444444444443 128)"/><path d="M1176.18 516.56a6 6 0 0 1 6-6h228a6 6 0 0 1 6 6v48a6 6 0 0 1-6 6h-228a6 6 0 0 1-6-6z" fill="none"/><use xlink:href="#d" transform="matrix(1,0,0,1,1176.1764705882356,510.5625) translate(10.333333333333314 32)"/><use xlink:href="#e" transform="matrix(1,0,0,1,1176.1764705882356,510.5625) translate(47.94444444444443 80)"/><path d="M936.18 916.56a6 6 0 0 1 6-6h228a6 6 0 0 1 6 6v48a6 6 0 0 1-6 6h-228a6 6 0 0 1-6-6z" fill="none"/><use xlink:href="#f" transform="matrix(1,0,0,1,936.1764705882356,910.5625) translate(42.44444444444444 32)"/><use xlink:href="#e" transform="matrix(1,0,0,1,936.1764705882356,910.5625) translate(47.94444444444443 80)"/><path d="M1256.18 916.56a6 6 0 0 1 6-6h228a6 6 0 0 1 6 6v48a6 6 0 0 1-6 6h-228a6 6 0 0 1-6-6z" fill="none"/><use xlink:href="#g" transform="matrix(1,0,0,1,1256.1764705882356,910.5625) translate(25.77777777777777 32)"/><use xlink:href="#h" transform="matrix(1,0,0,1,1256.1764705882356,910.5625) translate(47.94444444444443 80)"/><path d="M846.18 223.44a6 6 0 0 1 6-6h130a6 6 0 0 1 6 6v88a6 6 0 0 1-6 6h-130a6 6 0 0 1-6-6z" fill="none"/><use xlink:href="#i" transform="matrix(1,0,0,1,846.1764705882356,217.44237661484908) translate(-124.83333333333331 58)"/><path d="M1680 583.2a6 6 0 0 1 6-6h538a6 6 0 0 1 6 6v100.46a6 6 0 0 1-6 6h-538a6 6 0 0 1-6-6z" stroke="#000" stroke-opacity="0" stroke-width="3" fill="#ffe342"/><path d="M1680 716.1a6 6 0 0 1 6-6h538a6 6 0 0 1 6 6v100.45a6 6 0 0 1-6 6h-538a6 6 0 0 1-6-6z" stroke="#000" stroke-opacity="0" stroke-width="3" fill="#fc9432"/><path d="M1680 296.96a6 6 0 0 1 6-6h538a6 6 0 0 1 6 6V543.6a6 6 0 0 1-6 6h-538a6 6 0 0 1-6-6z" stroke="#000" stroke-opacity="0" stroke-width="3" fill="#54c45e"/><path d="M1953.47 318.97a1.53 1.53 0 0 1 1.53-1.53 1.53 1.53 0 0 1 1.53 1.53v140.06a1.53 1.53 0 0 1-1.53 1.53 1.53 1.53 0 0 1-1.53-1.52z" fill="none"/><use xlink:href="#j" transform="matrix(1,0,0,1,1953.4722222222222,317.4423766148491) translate(-99.0493827160494 35.55555555555556)"/><use xlink:href="#k" transform="matrix(1,0,0,1,1953.4722222222222,317.4423766148491) translate(-84.04938271604938 88.88888888888889)"/><use xlink:href="#l" transform="matrix(1,0,0,1,1953.4722222222222,317.4423766148491) translate(-36.888888888888886 142.22222222222223)"/><use xlink:href="#m" transform="matrix(1,0,0,1,1953.4722222222222,317.4423766148491) translate(-64.5432098765432 195.55555555555554)"/><path d="M1959.58 563.4a1.53 1.53 0 0 1 1.53-1.53 1.53 1.53 0 0 1 1.54 1.53v140.06a1.53 1.53 0 0 1-1.53 1.53 1.53 1.53 0 0 1-1.52-1.54z" fill="none"/><use xlink:href="#n" transform="matrix(1,0,0,1,1959.5833333333335,561.870545231042) translate(-79 56)"/><use xlink:href="#o" transform="matrix(1,0,0,1,1959.5833333333335,561.870545231042) translate(-87.77777777777777 104)"/><path d="M1950.42 696.3a1.53 1.53 0 0 1 1.52-1.53 1.53 1.53 0 0 1 1.53 1.53v140.06a1.53 1.53 0 0 1-1.53 1.53 1.53 1.53 0 0 1-1.52-1.54z" fill="none"/><use xlink:href="#p" transform="matrix(1,0,0,1,1950.4166666666665,694.7678026601108) translate(-67.94444444444446 56)"/><use xlink:href="#o" transform="matrix(1,0,0,1,1950.4166666666665,694.7678026601108) translate(-87.77777777777777 104)"/><path d="M1680 859.22a6 6 0 0 1 6-6h538a6 6 0 0 1 6 6v120.9a6 6 0 0 1-6 6h-538a6 6 0 0 1-6-6z" stroke="#000" stroke-opacity="0" stroke-width="3" fill="#6db1ff"/><path d="M1962.64 849.64a1.53 1.53 0 0 1 1.53-1.53 1.53 1.53 0 0 1 1.52 1.54V989.7a1.53 1.53 0 0 1-1.53 1.53 1.53 1.53 0 0 1-1.53-1.53z" fill="none"/><use xlink:href="#q" transform="matrix(1,0,0,1,1962.6388888888891,848.110792001344) translate(-84.73148148148148 34.22222222222223)"/><use xlink:href="#r" transform="matrix(1,0,0,1,1962.6388888888891,848.110792001344) translate(-54.561728395061735 79.55555555555556)"/><use xlink:href="#s" transform="matrix(1,0,0,1,1962.6388888888891,848.110792001344) translate(-58.811728395061735 124.8888888888889)"/><path d="M2520 576.97a6 6 0 0 1 6-6h290.38a6 6 0 0 1 6 6v128.26a6 6 0 0 1-6 6H2526a6 6 0 0 1-6-6z" stroke="#000" stroke-opacity="0" stroke-width="3" fill="#54c45e"/><path d="M3003.8 573.54a6 6 0 0 1 6-6h290.38a6 6 0 0 1 6 6V701.8a6 6 0 0 1-6 6H3009.8a6 6 0 0 1-6-6z" stroke="#000" stroke-opacity="0" stroke-width="3" fill="#ffe342"/><path d="M2748.46 826.7a6 6 0 0 1 6-6h290.38a6 6 0 0 1 6 6v128.27a6 6 0 0 1-6 6h-290.38a6 6 0 0 1-6-6z" stroke="#000" stroke-opacity="0" stroke-width="3" fill="#fc9432"/><path d="M2766.7 303.84a6 6 0 0 1 6-6h290.38a6 6 0 0 1 6 6V432.1a6 6 0 0 1-6 6H2772.7a6 6 0 0 1-6-6z" stroke="#000" stroke-opacity="0" stroke-width="3" fill="#6db1ff"/><path d="M2670.37 580.9a.82.82 0 0 1 .82-.8.82.82 0 0 1 .8.8V707a.82.82 0 0 1-.8.8.82.82 0 0 1-.83-.8z" fill="none"/><use xlink:href="#t" transform="matrix(1,0,0,1,2670.371848739496,580.0876099471644) translate(-46.66666666666666 72)"/><path d="M3086.33 624.94a6 6 0 0 1 6-6h125.32a6 6 0 0 1 6 6v31.18a6 6 0 0 1-6 6h-125.32a6 6 0 0 1-6-6z" fill="#fff" fill-opacity="0"/><use xlink:href="#u" transform="matrix(1,0,0,1,3091.329347123464,623.9364383990473) translate(-49.22222222222223 32)"/><path d="M2911.65 298.66a.82.82 0 0 1 .8-.82.82.82 0 0 1 .83.82v126.1a.82.82 0 0 1-.82.8.82.82 0 0 1-.8-.8z" fill="none"/><use xlink:href="#v" transform="matrix(1,0,0,1,2911.648351648352,297.84440911034415) translate(-54.388888888888886 32)"/><use xlink:href="#w" transform="matrix(1,0,0,1,2911.648351648352,297.84440911034415) translate(-48.94444444444444 80)"/><use xlink:href="#x" transform="matrix(1,0,0,1,2911.648351648352,297.84440911034415) translate(-56.722222222222214 128)"/><path d="M2765.2 367.98h-88a6 6 0 0 0-6 6v176.37" stroke="#000" stroke-width="3" fill="none"/><path d="M2766.7 369.45h-1.54v-2.95h1.54z" stroke="#000" stroke-width=".05"/><path d="M2671.2 566.1l-4.65-14.25h9.27z" stroke="#000" stroke-width="3"/><path d="M3070.58 367.98h78.4a6 6 0 0 1 6 6v172.94" stroke="#000" stroke-width="3" fill="none"/><path d="M3070.6 369.45h-1.52v-2.95h1.53z" stroke="#000" stroke-width=".05"/><path d="M3155 562.7l-4.65-14.28h9.27z" stroke="#000" stroke-width="3"/><path d="M2671.2 712.73v47.24a6 6 0 0 0 6 6h216.45a6 6 0 0 1 6 6v28.12" stroke="#000" stroke-width="3" fill="none"/><path d="M2672.66 712.77h-2.95v-1.54h2.96z" stroke="#000" stroke-width=".05"/><path d="M2899.65 815.85L2895 801.6h9.28z" stroke="#000" stroke-width="3"/><path d="M3155 709.3v21.6a6 6 0 0 1-6 6h-258.84a6 6 0 0 0-6 6v21.57" stroke="#000" stroke-width="3" fill="none"/><path d="M3156.46 709.35h-2.95v-1.54h2.96z" stroke="#000" stroke-width=".05"/><path d="M2884.16 764.43v1.54" stroke="#000" stroke-width="3" fill="none"/><path d="M2879 829.53a6 6 0 0 1 6-6H2925a6 6 0 0 1 6 6v41.26a6 6 0 0 1-6 6H2885a6 6 0 0 1-6-6z" fill="#fff" fill-opacity="0"/><g><use xlink:href="#y" transform="matrix(1,0,0,1,2884.0109890109893,828.5319091103443) translate(-18.148148148148152 21.333333333333336)"/><use xlink:href="#z" transform="matrix(1,0,0,1,2884.0109890109893,828.5319091103443) translate(-10.777777777777782 53.333333333333336)"/><use xlink:href="#A" transform="matrix(1,0,0,1,2884.0109890109893,828.5319091103443) translate(11.407407407407407 85.33333333333334)"/><use xlink:href="#B" transform="matrix(1,0,0,1,2884.0109890109893,828.5319091103443) translate(-54.481481481481495 117.33333333333334)"/></g><path d="M603.64 1086a6 6 0 0 1 6-6h795.07a6 6 0 0 1 6 6v48a6 6 0 0 1-6 6H609.65a6 6 0 0 1-6-6z" fill="none"/><g><use xlink:href="#C" transform="matrix(1,0,0,1,603.6454707632735,1080) translate(154.07407407407405 42.66666666666667)"/><use xlink:href="#D" transform="matrix(1,0,0,1,603.6454707632735,1080) translate(284.14814814814815 42.66666666666667)"/></g><path d="M1540 1086a6 6 0 0 1 6-6h795.06a6 6 0 0 1 6 6v48a6 6 0 0 1-6 6H1546a6 6 0 0 1-6-6z" fill="none"/><g><use xlink:href="#E" transform="matrix(1,0,0,1,1540,1080) translate(96.44444444444446 42.66666666666667)"/><use xlink:href="#F" transform="matrix(1,0,0,1,1540,1080) translate(397.925925925926 42.66666666666667)"/></g><path d="M2508.93 1066a6 6 0 0 1 6-6H3310a6 6 0 0 1 6 6v48a6 6 0 0 1-6 6h-795.07a6 6 0 0 1-6-6z" fill="none"/><g><use xlink:href="#G" transform="matrix(1,0,0,1,2508.933285889324,1060) translate(89.1851851851851 42.66666666666667)"/><use xlink:href="#H" transform="matrix(1,0,0,1,2508.933285889324,1060) translate(349.3333333333333 42.66666666666667)"/><use xlink:href="#I" transform="matrix(1,0,0,1,2508.933285889324,1060) translate(258.2222222222222 106.66666666666667)"/></g><path d="M1450.7 587.3a6 6 0 0 1 6-6h68.46a6 6 0 0 0 6-6v-37.74a2.3 2.3 0 0 1 4-1.54l81.53 90.58a6.67 6.67 0 0 1 0 8.92l-81.53 90.58a2.3 2.3 0 0 1-4-1.54V686.8a6 6 0 0 0-6-6h-68.46a6 6 0 0 1-6-6zM2289.3 575.75a6 6 0 0 1 6-6h68.44a6 6 0 0 0 6-6V526a2.3 2.3 0 0 1 4.02-1.54l81.52 90.58a6.67 6.67 0 0 1 0 8.92l-81.52 90.58a2.3 2.3 0 0 1-4.02-1.54v-37.75a6 6 0 0 0-6-6h-68.45a6 6 0 0 1-6-6z" stroke="#000" stroke-opacity="0" stroke-width="3" fill="#1071e5"/><path d="M736.18 572.06v47.32" stroke="#3a414a" stroke-width="3" fill="none"/><path d="M737.65 572.1h-2.95v-1.54h2.95z" stroke="#3a414a" stroke-width=".05" fill="#3a414a"/><path d="M736.18 635.15l-4.64-14.27h9.27z" stroke="#3a414a" stroke-width="3" fill="#3a414a"/><defs><path d="M240-174c0 40-23 61-54 70L253 0h-59l-57-94H76V0H24v-248c93 4 217-23 216 74zM76-134c48-2 112 12 112-38 0-48-66-32-112-35v73" id="J"/><path d="M169-182c-1-43-94-46-97-3 18 66 151 10 154 114 3 95-165 93-204 36-6-8-10-19-12-30l50-8c3 46 112 56 116 5-17-69-150-10-154-114-4-87 153-88 188-35 5 8 8 18 10 28" id="K"/><path d="M175 0L67-191c6 58 2 128 3 191H24v-248h59L193-55c-6-58-2-129-3-193h46V0h-61" id="L"/><path d="M199 0l-22-63H83L61 0H9l90-248h61L250 0h-51zm-33-102l-36-108c-10 38-24 72-36 108h72" id="M"/><g id="a"><use transform="matrix(0.1111111111111111,0,0,0.1111111111111111,0,0)" xlink:href="#J"/><use transform="matrix(0.1111111111111111,0,0,0.1111111111111111,28.777777777777775,0)" xlink:href="#K"/><use transform="matrix(0.1111111111111111,0,0,0.1111111111111111,55.44444444444444,0)" xlink:href="#L"/><use transform="matrix(0.1111111111111111,0,0,0.1111111111111111,84.22222222222221,0)" xlink:href="#M"/></g><path d="M24-248c93 1 206-16 204 79-1 75-69 88-152 82V0H24v-248zm52 121c47 0 100 7 100-41 0-47-54-39-100-39v80" id="N"/><path d="M135-194c87-1 58 113 63 194h-50c-7-57 23-157-34-157-59 0-34 97-39 157H25l-1-190h47c2 12-1 28 3 38 12-26 28-41 61-42" id="O"/><path d="M185-48c-13 30-37 53-82 52C43 2 14-33 14-96s30-98 90-98c62 0 83 45 84 108H66c0 31 8 55 39 56 18 0 30-7 34-22zm-45-69c5-46-57-63-70-21-2 6-4 13-4 21h74" id="P"/><path d="M85 4C-2 5 27-109 22-190h50c7 57-23 150 33 157 60-5 35-97 40-157h50l1 190h-47c-2-12 1-28-3-38-12 25-28 42-61 42" id="Q"/><path d="M220-157c-53 9-28 100-34 157h-49v-107c1-27-5-49-29-50C55-147 81-57 75 0H25l-1-190h47c2 12-1 28 3 38 10-53 101-56 108 0 13-22 24-43 59-42 82 1 51 116 57 194h-49v-107c-1-25-5-48-29-50" id="R"/><path d="M110-194c64 0 96 36 96 99 0 64-35 99-97 99-61 0-95-36-95-99 0-62 34-99 96-99zm-1 164c35 0 45-28 45-65 0-40-10-65-43-65-34 0-45 26-45 65 0 36 10 65 43 65" id="S"/><path d="M25-224v-37h50v37H25zM25 0v-190h50V0H25" id="T"/><path d="M133-34C117-15 103 5 69 4 32 3 11-16 11-54c-1-60 55-63 116-61 1-26-3-47-28-47-18 1-26 9-28 27l-52-2c7-38 36-58 82-57s74 22 75 68l1 82c-1 14 12 18 25 15v27c-30 8-71 5-69-32zm-48 3c29 0 43-24 42-57-32 0-66-3-65 30 0 17 8 27 23 27" id="U"/><g id="b"><use transform="matrix(0.1111111111111111,0,0,0.1111111111111111,0,0)" xlink:href="#N"/><use transform="matrix(0.1111111111111111,0,0,0.1111111111111111,26.666666666666664,0)" xlink:href="#O"/><use transform="matrix(0.1111111111111111,0,0,0.1111111111111111,51,0)" xlink:href="#P"/><use transform="matrix(0.1111111111111111,0,0,0.1111111111111111,73.22222222222223,0)" xlink:href="#Q"/><use transform="matrix(0.1111111111111111,0,0,0.1111111111111111,97.55555555555556,0)" xlink:href="#R"/><use transform="matrix(0.1111111111111111,0,0,0.1111111111111111,133.11111111111111,0)" xlink:href="#S"/><use transform="matrix(0.1111111111111111,0,0,0.1111111111111111,157.44444444444446,0)" xlink:href="#O"/><use transform="matrix(0.1111111111111111,0,0,0.1111111111111111,181.7777777777778,0)" xlink:href="#T"/><use transform="matrix(0.1111111111111111,0,0,0.1111111111111111,192.8888888888889,0)" xlink:href="#U"/></g><path d="M24-248c120-7 223 5 221 122C244-46 201 0 124 0H24v-248zM76-40c74 7 117-18 117-86 0-67-45-88-117-82v168" id="V"/><path d="M115-3C79 11 28 4 28-45v-112H4v-33h27l15-45h31v45h36v33H77v99c-1 23 16 31 38 25v30" id="W"/><path d="M137-138c1-29-70-34-71-4 15 46 118 7 119 86 1 83-164 76-172 9l43-7c4 19 20 25 44 25 33 8 57-30 24-41C81-84 22-81 20-136c-2-80 154-74 161-7" id="X"/><g id="c"><use transform="matrix(0.1111111111111111,0,0,0.1111111111111111,0,0)" xlink:href="#V"/><use transform="matrix(0.1111111111111111,0,0,0.1111111111111111,28.777777777777775,0)" xlink:href="#U"/><use transform="matrix(0.1111111111111111,0,0,0.1111111111111111,51,0)" xlink:href="#W"/><use transform="matrix(0.1111111111111111,0,0,0.1111111111111111,64.22222222222223,0)" xlink:href="#U"/><use transform="matrix(0.1111111111111111,0,0,0.1111111111111111,86.44444444444446,0)" xlink:href="#X"/><use transform="matrix(0.1111111111111111,0,0,0.1111111111111111,108.66666666666669,0)" xlink:href="#P"/><use transform="matrix(0.1111111111111111,0,0,0.1111111111111111,130.8888888888889,0)" xlink:href="#W"/></g><path d="M195-6C206 82 75 100 31 46c-4-6-6-13-8-21l49-6c3 16 16 24 34 25 40 0 42-37 40-79-11 22-30 35-61 35-53 0-70-43-70-97 0-56 18-96 73-97 30 0 46 14 59 34l2-30h47zm-90-29c32 0 41-27 41-63 0-35-9-62-40-62-32 0-39 29-40 63 0 36 9 62 39 62" id="Y"/><path d="M88-194c31-1 46 15 58 34l-1-101h50l1 261h-48c-2-10 0-23-3-31C134-8 116 4 84 4 32 4 16-41 15-95c0-56 19-97 73-99zm17 164c33 0 40-30 41-66 1-37-9-64-41-64s-38 30-39 65c0 43 13 65 39 65" id="Z"/><g id="d"><use transform="matrix(0.1111111111111111,0,0,0.1111111111111111,0,0)" xlink:href="#M"/><use transform="matrix(0.1111111111111111,0,0,0.1111111111111111,28.777777777777775,0)" xlink:href="#Q"/><use transform="matrix(0.1111111111111111,0,0,0.1111111111111111,53.11111111111111,0)" xlink:href="#Y"/><use transform="matrix(0.1111111111111111,0,0,0.1111111111111111,77.44444444444444,0)" xlink:href="#R"/><use transform="matrix(0.1111111111111111,0,0,0.1111111111111111,113,0)" xlink:href="#P"/><use transform="matrix(0.1111111111111111,0,0,0.1111111111111111,135.22222222222223,0)" xlink:href="#O"/><use transform="matrix(0.1111111111111111,0,0,0.1111111111111111,159.55555555555557,0)" xlink:href="#W"/><use transform="matrix(0.1111111111111111,0,0,0.1111111111111111,172.7777777777778,0)" xlink:href="#P"/><use transform="matrix(0.1111111111111111,0,0,0.1111111111111111,195.00000000000003,0)" xlink:href="#Z"/></g><g id="e"><use transform="matrix(0.1111111111111111,0,0,0.1111111111111111,0,0)" xlink:href="#V"/><use transform="matrix(0.1111111111111111,0,0,0.1111111111111111,28.777777777777775,0)" xlink:href="#U"/><use transform="matrix(0.1111111111111111,0,0,0.1111111111111111,51,0)" xlink:href="#W"/><use transform="matrix(0.1111111111111111,0,0,0.1111111111111111,64.22222222222223,0)" xlink:href="#U"/><use transform="matrix(0.1111111111111111,0,0,0.1111111111111111,86.44444444444446,0)" xlink:href="#X"/><use transform="matrix(0.1111111111111111,0,0,0.1111111111111111,108.66666666666669,0)" xlink:href="#P"/><use transform="matrix(0.1111111111111111,0,0,0.1111111111111111,130.8888888888889,0)" xlink:href="#W"/></g><path d="M136-208V0H84v-208H4v-40h212v40h-80" id="aa"/><path d="M135-150c-39-12-60 13-60 57V0H25l-1-190h47c2 13-1 29 3 40 6-28 27-53 61-41v41" id="ab"/><g id="f"><use transform="matrix(0.1111111111111111,0,0,0.1111111111111111,0,0)" xlink:href="#aa"/><use transform="matrix(0.1111111111111111,0,0,0.1111111111111111,22.11111111111111,0)" xlink:href="#ab"/><use transform="matrix(0.1111111111111111,0,0,0.1111111111111111,37.666666666666664,0)" xlink:href="#U"/><use transform="matrix(0.1111111111111111,0,0,0.1111111111111111,59.888888888888886,0)" xlink:href="#T"/><use transform="matrix(0.1111111111111111,0,0,0.1111111111111111,71,0)" xlink:href="#O"/><use transform="matrix(0.1111111111111111,0,0,0.1111111111111111,95.33333333333333,0)" xlink:href="#T"/><use transform="matrix(0.1111111111111111,0,0,0.1111111111111111,106.44444444444444,0)" xlink:href="#O"/><use transform="matrix(0.1111111111111111,0,0,0.1111111111111111,130.77777777777777,0)" xlink:href="#Y"/></g><path d="M147 0H94L2-248h55l64 206c17-72 42-137 63-206h54" id="ac"/><path d="M25 0v-261h50V0H25" id="ad"/><g id="g"><use transform="matrix(0.1111111111111111,0,0,0.1111111111111111,0,0)" xlink:href="#ac"/><use transform="matrix(0.1111111111111111,0,0,0.1111111111111111,24.444444444444443,0)" xlink:href="#U"/><use transform="matrix(0.1111111111111111,0,0,0.1111111111111111,46.666666666666664,0)" xlink:href="#ad"/><use transform="matrix(0.1111111111111111,0,0,0.1111111111111111,57.77777777777777,0)" xlink:href="#T"/><use transform="matrix(0.1111111111111111,0,0,0.1111111111111111,68.88888888888889,0)" xlink:href="#Z"/><use transform="matrix(0.1111111111111111,0,0,0.1111111111111111,93.22222222222221,0)" xlink:href="#U"/><use transform="matrix(0.1111111111111111,0,0,0.1111111111111111,115.44444444444444,0)" xlink:href="#W"/><use transform="matrix(0.1111111111111111,0,0,0.1111111111111111,128.66666666666666,0)" xlink:href="#T"/><use transform="matrix(0.1111111111111111,0,0,0.1111111111111111,139.77777777777777,0)" xlink:href="#S"/><use transform="matrix(0.1111111111111111,0,0,0.1111111111111111,164.11111111111111,0)" xlink:href="#O"/></g><g id="h"><use transform="matrix(0.1111111111111111,0,0,0.1111111111111111,0,0)" xlink:href="#V"/><use transform="matrix(0.1111111111111111,0,0,0.1111111111111111,28.777777777777775,0)" xlink:href="#U"/><use transform="matrix(0.1111111111111111,0,0,0.1111111111111111,51,0)" xlink:href="#W"/><use transform="matrix(0.1111111111111111,0,0,0.1111111111111111,64.22222222222223,0)" xlink:href="#U"/><use transform="matrix(0.1111111111111111,0,0,0.1111111111111111,86.44444444444446,0)" xlink:href="#X"/><use transform="matrix(0.1111111111111111,0,0,0.1111111111111111,108.66666666666669,0)" xlink:href="#P"/><use transform="matrix(0.1111111111111111,0,0,0.1111111111111111,130.8888888888889,0)" xlink:href="#W"/></g><path d="M24 0v-248h52V0H24" id="ae"/><path d="M67-125c0 54 23 88 75 88 28 0 53-7 68-21v-34h-60v-39h108v91C232-14 192 4 140 4 58 4 20-42 15-125 8-236 126-280 215-234c19 10 29 26 37 47l-47 15c-11-23-29-39-63-39-53 1-75 33-75 86" id="af"/><g id="i"><use transform="matrix(0.1111111111111111,0,0,0.1111111111111111,0,0)" xlink:href="#ae"/><use transform="matrix(0.1111111111111111,0,0,0.1111111111111111,11.11111111111111,0)" xlink:href="#R"/><use transform="matrix(0.1111111111111111,0,0,0.1111111111111111,46.66666666666667,0)" xlink:href="#U"/><use transform="matrix(0.1111111111111111,0,0,0.1111111111111111,68.88888888888889,0)" xlink:href="#Y"/><use transform="matrix(0.1111111111111111,0,0,0.1111111111111111,93.22222222222221,0)" xlink:href="#P"/><use transform="matrix(0.1111111111111111,0,0,0.1111111111111111,115.44444444444444,0)" xlink:href="#V"/><use transform="matrix(0.1111111111111111,0,0,0.1111111111111111,144.2222222222222,0)" xlink:href="#U"/><use transform="matrix(0.1111111111111111,0,0,0.1111111111111111,166.44444444444443,0)" xlink:href="#W"/><use transform="matrix(0.1111111111111111,0,0,0.1111111111111111,179.66666666666666,0)" xlink:href="#U"/><use transform="matrix(0.1111111111111111,0,0,0.1111111111111111,201.88888888888889,0)" xlink:href="#af"/><use transform="matrix(0.1111111111111111,0,0,0.1111111111111111,233,0)" xlink:href="#P"/><use transform="matrix(0.1111111111111111,0,0,0.1111111111111111,255.2222222222222,0)" xlink:href="#O"/><use transform="matrix(0.1111111111111111,0,0,0.1111111111111111,279.55555555555554,0)" xlink:href="#P"/><use transform="matrix(0.1111111111111111,0,0,0.1111111111111111,301.77777777777777,0)" xlink:href="#ab"/><use transform="matrix(0.1111111111111111,0,0,0.1111111111111111,317.3333333333333,0)" xlink:href="#U"/><use transform="matrix(0.1111111111111111,0,0,0.1111111111111111,339.55555555555554,0)" xlink:href="#W"/><use transform="matrix(0.1111111111111111,0,0,0.1111111111111111,352.77777777777777,0)" xlink:href="#S"/><use transform="matrix(0.1111111111111111,0,0,0.1111111111111111,377.1111111111111,0)" xlink:href="#ab"/></g><path d="M139-81c0-46-55-55-73-27H18l9-140h149v37H72l-4 63c44-38 133-4 122 66C201 21 21 35 11-62l49-4c5 18 15 30 39 30 26 0 40-18 40-45" id="ag"/><path d="M101-251c68 0 84 54 84 127C185-50 166 4 99 4S15-52 14-124c-1-75 17-127 87-127zm-1 216c37-5 36-46 36-89s4-89-36-89c-39 0-36 45-36 89 0 43-3 85 36 89" id="ah"/><g id="j"><use transform="matrix(0.12345679012345678,0,0,0.12345679012345678,0,0)" xlink:href="#J"/><use transform="matrix(0.12345679012345678,0,0,0.12345679012345678,31.975308641975307,0)" xlink:href="#P"/><use transform="matrix(0.12345679012345678,0,0,0.12345679012345678,56.666666666666664,0)" xlink:href="#X"/><use transform="matrix(0.12345679012345678,0,0,0.12345679012345678,81.35802469135803,0)" xlink:href="#L"/><use transform="matrix(0.12345679012345678,0,0,0.12345679012345678,113.33333333333333,0)" xlink:href="#P"/><use transform="matrix(0.12345679012345678,0,0,0.12345679012345678,138.02469135802468,0)" xlink:href="#W"/><use transform="matrix(0.12345679012345678,0,0,0.12345679012345678,152.71604938271605,0)" xlink:href="#ag"/><use transform="matrix(0.12345679012345678,0,0,0.12345679012345678,177.40740740740742,0)" xlink:href="#ah"/></g><path d="M67-93c0 74 22 123 53 168H70C40 30 18-18 18-93s22-123 52-168h50c-32 44-53 94-53 168" id="ai"/><path d="M231 0h-52l-39-155L100 0H48L-1-190h46L77-45c9-52 24-97 36-145h53l37 145 32-145h46" id="aj"/><path d="M114-157C55-157 80-60 75 0H25v-261h50l-1 109c12-26 28-41 61-42 86-1 58 113 63 194h-50c-7-57 23-157-34-157" id="ak"/><g id="k"><use transform="matrix(0.12345679012345678,0,0,0.12345679012345678,0,0)" xlink:href="#ai"/><use transform="matrix(0.12345679012345678,0,0,0.12345679012345678,14.691358024691358,0)" xlink:href="#aj"/><use transform="matrix(0.12345679012345678,0,0,0.12345679012345678,49.25925925925925,0)" xlink:href="#T"/><use transform="matrix(0.12345679012345678,0,0,0.12345679012345678,61.60493827160493,0)" xlink:href="#W"/><use transform="matrix(0.12345679012345678,0,0,0.12345679012345678,76.29629629629629,0)" xlink:href="#ak"/><use transform="matrix(0.12345679012345678,0,0,0.12345679012345678,103.33333333333333,0)" xlink:href="#S"/><use transform="matrix(0.12345679012345678,0,0,0.12345679012345678,130.37037037037035,0)" xlink:href="#Q"/><use transform="matrix(0.12345679012345678,0,0,0.12345679012345678,157.4074074074074,0)" xlink:href="#W"/></g><path d="M135-194c53 0 70 44 70 98 0 56-19 98-73 100-31 1-45-17-59-34 3 33 2 69 2 105H25l-1-265h48c2 10 0 23 3 31 11-24 29-35 60-35zM114-30c33 0 39-31 40-66 0-38-9-64-40-64-56 0-55 130 0 130" id="al"/><g id="l"><use transform="matrix(0.12345679012345678,0,0,0.12345679012345678,0,0)" xlink:href="#aa"/><use transform="matrix(0.12345679012345678,0,0,0.12345679012345678,23.703703703703702,0)" xlink:href="#S"/><use transform="matrix(0.12345679012345678,0,0,0.12345679012345678,50.74074074074073,0)" xlink:href="#al"/></g><path d="M24 0v-248h52v208h133V0H24" id="am"/><path d="M123 10C108 53 80 86 19 72V37c35 8 53-11 59-39L3-190h52l48 148c12-52 28-100 44-148h51" id="an"/><path d="M102-93c0 74-22 123-52 168H0C30 29 54-18 53-93c0-74-22-123-53-168h50c30 45 52 94 52 168" id="ao"/><g id="m"><use transform="matrix(0.12345679012345678,0,0,0.12345679012345678,0,0)" xlink:href="#am"/><use transform="matrix(0.12345679012345678,0,0,0.12345679012345678,27.037037037037035,0)" xlink:href="#U"/><use transform="matrix(0.12345679012345678,0,0,0.12345679012345678,51.72839506172839,0)" xlink:href="#an"/><use transform="matrix(0.12345679012345678,0,0,0.12345679012345678,76.41975308641975,0)" xlink:href="#P"/><use transform="matrix(0.12345679012345678,0,0,0.12345679012345678,101.1111111111111,0)" xlink:href="#ab"/><use transform="matrix(0.12345679012345678,0,0,0.12345679012345678,118.39506172839505,0)" xlink:href="#ao"/></g><path d="M84 4C32 4 15-41 15-95c0-55 18-99 73-99 29 0 47 12 58 34l2-30h48l-1 265h-49V-32C136-9 114 4 84 4zm21-34c32 0 41-29 41-66 0-36-9-64-40-64-33 0-39 30-40 65 0 43 13 65 39 65" id="ap"/><path d="M12 0v-35l95-120H19v-35h142v35L67-36h103V0H12" id="aq"/><g id="n"><use transform="matrix(0.1111111111111111,0,0,0.1111111111111111,0,0)" xlink:href="#K"/><use transform="matrix(0.1111111111111111,0,0,0.1111111111111111,26.666666666666664,0)" xlink:href="#ap"/><use transform="matrix(0.1111111111111111,0,0,0.1111111111111111,51,0)" xlink:href="#Q"/><use transform="matrix(0.1111111111111111,0,0,0.1111111111111111,75.33333333333333,0)" xlink:href="#P"/><use transform="matrix(0.1111111111111111,0,0,0.1111111111111111,97.55555555555554,0)" xlink:href="#P"/><use transform="matrix(0.1111111111111111,0,0,0.1111111111111111,119.77777777777777,0)" xlink:href="#aq"/><use transform="matrix(0.1111111111111111,0,0,0.1111111111111111,139.77777777777777,0)" xlink:href="#P"/></g><path d="M67-125c0 53 21 87 73 88 37 1 54-22 65-47l45 17C233-25 199 4 140 4 58 4 20-42 15-125 8-235 124-281 211-232c18 10 29 29 36 50l-46 12c-8-25-30-41-62-41-52 0-71 34-72 86" id="ar"/><g id="o"><use transform="matrix(0.1111111111111111,0,0,0.1111111111111111,0,0)" xlink:href="#ar"/><use transform="matrix(0.1111111111111111,0,0,0.1111111111111111,28.777777777777775,0)" xlink:href="#ak"/><use transform="matrix(0.1111111111111111,0,0,0.1111111111111111,53.11111111111111,0)" xlink:href="#U"/><use transform="matrix(0.1111111111111111,0,0,0.1111111111111111,75.33333333333333,0)" xlink:href="#O"/><use transform="matrix(0.1111111111111111,0,0,0.1111111111111111,99.66666666666666,0)" xlink:href="#O"/><use transform="matrix(0.1111111111111111,0,0,0.1111111111111111,124,0)" xlink:href="#P"/><use transform="matrix(0.1111111111111111,0,0,0.1111111111111111,146.2222222222222,0)" xlink:href="#ad"/><use transform="matrix(0.1111111111111111,0,0,0.1111111111111111,157.33333333333331,0)" xlink:href="#X"/></g><path d="M24 0v-248h195v40H76v63h132v40H76v65h150V0H24" id="as"/><path d="M144 0l-44-69L55 0H2l70-98-66-92h53l41 62 40-62h54l-67 91 71 99h-54" id="at"/><path d="M190-63c-7 42-38 67-86 67-59 0-84-38-90-98-12-110 154-137 174-36l-49 2c-2-19-15-32-35-32-30 0-35 28-38 64-6 74 65 87 74 30" id="au"/><g id="p"><use transform="matrix(0.1111111111111111,0,0,0.1111111111111111,0,0)" xlink:href="#as"/><use transform="matrix(0.1111111111111111,0,0,0.1111111111111111,26.666666666666664,0)" xlink:href="#at"/><use transform="matrix(0.1111111111111111,0,0,0.1111111111111111,48.888888888888886,0)" xlink:href="#au"/><use transform="matrix(0.1111111111111111,0,0,0.1111111111111111,71.11111111111111,0)" xlink:href="#T"/><use transform="matrix(0.1111111111111111,0,0,0.1111111111111111,82.22222222222223,0)" xlink:href="#W"/><use transform="matrix(0.1111111111111111,0,0,0.1111111111111111,95.44444444444446,0)" xlink:href="#P"/><use transform="matrix(0.1111111111111111,0,0,0.1111111111111111,117.66666666666669,0)" xlink:href="#X"/></g><path d="M168-19C124 19 11 11 16-68c3-43 29-60 59-75-25-44-12-111 53-106 37 3 64 15 64 52 0 43-40 52-69 68 12 22 27 41 43 59 14-19 21-38 28-64l37 13c-8 29-19 52-34 74 12 10 32 16 52 10v35c-28 11-65-2-81-17zm-58-139c19-9 43-14 43-39 0-14-10-22-25-22-34 0-33 41-18 61zM60-68c-3 40 55 47 79 25-18-20-34-42-48-67-18 8-30 20-31 42" id="av"/><g id="q"><use transform="matrix(0.10493827160493828,0,0,0.10493827160493828,0,0)" xlink:href="#V"/><use transform="matrix(0.10493827160493828,0,0,0.10493827160493828,27.179012345679013,0)" xlink:href="#ab"/><use transform="matrix(0.10493827160493828,0,0,0.10493827160493828,41.870370370370374,0)" xlink:href="#S"/><use transform="matrix(0.10493827160493828,0,0,0.10493827160493828,64.85185185185186,0)" xlink:href="#al"/><use transform="matrix(0.10493827160493828,0,0,0.10493827160493828,87.83333333333334,0)" xlink:href="#S"/><use transform="matrix(0.10493827160493828,0,0,0.10493827160493828,110.81481481481482,0)" xlink:href="#Q"/><use transform="matrix(0.10493827160493828,0,0,0.10493827160493828,133.7962962962963,0)" xlink:href="#W"/><use transform="matrix(0.10493827160493828,0,0,0.10493827160493828,146.28395061728395,0)" xlink:href="#av"/></g><g id="r"><use transform="matrix(0.10493827160493828,0,0,0.10493827160493828,0,0)" xlink:href="#V"/><use transform="matrix(0.10493827160493828,0,0,0.10493827160493828,27.179012345679013,0)" xlink:href="#P"/><use transform="matrix(0.10493827160493828,0,0,0.10493827160493828,48.16666666666667,0)" xlink:href="#O"/><use transform="matrix(0.10493827160493828,0,0,0.10493827160493828,71.14814814814815,0)" xlink:href="#X"/><use transform="matrix(0.10493827160493828,0,0,0.10493827160493828,92.13580246913581,0)" xlink:href="#P"/></g><g id="s"><use transform="matrix(0.10493827160493828,0,0,0.10493827160493828,0,0)" xlink:href="#am"/><use transform="matrix(0.10493827160493828,0,0,0.10493827160493828,22.981481481481485,0)" xlink:href="#U"/><use transform="matrix(0.10493827160493828,0,0,0.10493827160493828,43.96913580246914,0)" xlink:href="#an"/><use transform="matrix(0.10493827160493828,0,0,0.10493827160493828,64.9567901234568,0)" xlink:href="#P"/><use transform="matrix(0.10493827160493828,0,0,0.10493827160493828,85.94444444444446,0)" xlink:href="#ab"/><use transform="matrix(0.10493827160493828,0,0,0.10493827160493828,100.63580246913581,0)" xlink:href="#X"/></g><path d="M230 0l2-204L168 0h-37L68-204 70 0H24v-248h70l56 185 57-185h69V0h-46" id="aw"/><g id="t"><use transform="matrix(0.1111111111111111,0,0,0.1111111111111111,0,0)" xlink:href="#am"/><use transform="matrix(0.1111111111111111,0,0,0.1111111111111111,24.333333333333332,0)" xlink:href="#ae"/><use transform="matrix(0.1111111111111111,0,0,0.1111111111111111,35.44444444444444,0)" xlink:href="#aw"/><use transform="matrix(0.1111111111111111,0,0,0.1111111111111111,68.66666666666666,0)" xlink:href="#as"/></g><path d="M125-100v72H85v-72H15v-39h70v-72h40v72h71v39h-71" id="ax"/><g id="u"><use transform="matrix(0.1111111111111111,0,0,0.1111111111111111,0,0)" xlink:href="#af"/><use transform="matrix(0.1111111111111111,0,0,0.1111111111111111,31.11111111111111,0)" xlink:href="#ab"/><use transform="matrix(0.1111111111111111,0,0,0.1111111111111111,46.666666666666664,0)" xlink:href="#U"/><use transform="matrix(0.1111111111111111,0,0,0.1111111111111111,68.88888888888889,0)" xlink:href="#Z"/><use transform="matrix(0.1111111111111111,0,0,0.1111111111111111,93.22222222222221,0)" xlink:href="#ar"/><use transform="matrix(0.1111111111111111,0,0,0.1111111111111111,122,0)" xlink:href="#U"/><use transform="matrix(0.1111111111111111,0,0,0.1111111111111111,144.2222222222222,0)" xlink:href="#R"/><use transform="matrix(0.1111111111111111,0,0,0.1111111111111111,179.77777777777777,0)" xlink:href="#ax"/><use transform="matrix(0.1111111111111111,0,0,0.1111111111111111,203.11111111111111,0)" xlink:href="#ax"/></g><g id="v"><use transform="matrix(0.1111111111111111,0,0,0.1111111111111111,0,0)" xlink:href="#ar"/><use transform="matrix(0.1111111111111111,0,0,0.1111111111111111,28.777777777777775,0)" xlink:href="#ak"/><use transform="matrix(0.1111111111111111,0,0,0.1111111111111111,53.11111111111111,0)" xlink:href="#P"/><use transform="matrix(0.1111111111111111,0,0,0.1111111111111111,75.33333333333333,0)" xlink:href="#X"/><use transform="matrix(0.1111111111111111,0,0,0.1111111111111111,97.55555555555554,0)" xlink:href="#W"/></g><path d="M182 0l-62-99L58 0H3l86-130-79-118h55l55 88 55-88h55l-75 118L237 0h-55" id="ay"/><path d="M14-72v-43h91v43H14" id="az"/><g id="w"><use transform="matrix(0.1111111111111111,0,0,0.1111111111111111,0,0)" xlink:href="#ay"/><use transform="matrix(0.1111111111111111,0,0,0.1111111111111111,26.666666666666664,0)" xlink:href="#az"/><use transform="matrix(0.1111111111111111,0,0,0.1111111111111111,39.888888888888886,0)" xlink:href="#ab"/><use transform="matrix(0.1111111111111111,0,0,0.1111111111111111,55.44444444444444,0)" xlink:href="#U"/><use transform="matrix(0.1111111111111111,0,0,0.1111111111111111,77.66666666666666,0)" xlink:href="#an"/></g><g id="x"><use transform="matrix(0.1111111111111111,0,0,0.1111111111111111,0,0)" xlink:href="#ae"/><use transform="matrix(0.1111111111111111,0,0,0.1111111111111111,11.11111111111111,0)" xlink:href="#R"/><use transform="matrix(0.1111111111111111,0,0,0.1111111111111111,46.66666666666667,0)" xlink:href="#U"/><use transform="matrix(0.1111111111111111,0,0,0.1111111111111111,68.88888888888889,0)" xlink:href="#Y"/><use transform="matrix(0.1111111111111111,0,0,0.1111111111111111,93.22222222222221,0)" xlink:href="#P"/></g><path d="M76-208v77h127v40H76V0H24v-248h183v40H76" id="aA"/><g id="y"><use transform="matrix(0.07407407407407408,0,0,0.07407407407407408,0,0)" xlink:href="#aA"/><use transform="matrix(0.07407407407407408,0,0,0.07407407407407408,16.222222222222225,0)" xlink:href="#Q"/><use transform="matrix(0.07407407407407408,0,0,0.07407407407407408,32.44444444444445,0)" xlink:href="#X"/><use transform="matrix(0.07407407407407408,0,0,0.07407407407407408,47.25925925925927,0)" xlink:href="#P"/><use transform="matrix(0.07407407407407408,0,0,0.07407407407407408,62.07407407407408,0)" xlink:href="#Z"/></g><g id="z"><use transform="matrix(0.07407407407407408,0,0,0.07407407407407408,0,0)" xlink:href="#am"/><use transform="matrix(0.07407407407407408,0,0,0.07407407407407408,16.222222222222225,0)" xlink:href="#ae"/><use transform="matrix(0.07407407407407408,0,0,0.07407407407407408,23.629629629629633,0)" xlink:href="#aw"/><use transform="matrix(0.07407407407407408,0,0,0.07407407407407408,45.777777777777786,0)" xlink:href="#as"/></g><use transform="matrix(0.07407407407407408,0,0,0.07407407407407408,0,0)" xlink:href="#av" id="A"/><g id="B"><use transform="matrix(0.07407407407407408,0,0,0.07407407407407408,0,0)" xlink:href="#af"/><use transform="matrix(0.07407407407407408,0,0,0.07407407407407408,20.740740740740744,0)" xlink:href="#ab"/><use transform="matrix(0.07407407407407408,0,0,0.07407407407407408,31.111111111111114,0)" xlink:href="#U"/><use transform="matrix(0.07407407407407408,0,0,0.07407407407407408,45.92592592592593,0)" xlink:href="#Z"/><use transform="matrix(0.07407407407407408,0,0,0.07407407407407408,62.14814814814816,0)" xlink:href="#ar"/><use transform="matrix(0.07407407407407408,0,0,0.07407407407407408,81.33333333333334,0)" xlink:href="#U"/><use transform="matrix(0.07407407407407408,0,0,0.07407407407407408,96.14814814814814,0)" xlink:href="#R"/><use transform="matrix(0.07407407407407408,0,0,0.07407407407407408,119.85185185185186,0)" xlink:href="#ax"/><use transform="matrix(0.07407407407407408,0,0,0.07407407407407408,135.40740740740742,0)" xlink:href="#ax"/></g><g id="C"><use transform="matrix(0.14814814814814817,0,0,0.14814814814814817,0,0)" xlink:href="#V"/><use transform="matrix(0.14814814814814817,0,0,0.14814814814814817,38.370370370370374,0)" xlink:href="#U"/><use transform="matrix(0.14814814814814817,0,0,0.14814814814814817,68,0)" xlink:href="#W"/><use transform="matrix(0.14814814814814817,0,0,0.14814814814814817,85.62962962962965,0)" xlink:href="#U"/></g><g id="D"><use transform="matrix(0.14814814814814817,0,0,0.14814814814814817,0,0)" xlink:href="#N"/><use transform="matrix(0.14814814814814817,0,0,0.14814814814814817,35.55555555555556,0)" xlink:href="#ab"/><use transform="matrix(0.14814814814814817,0,0,0.14814814814814817,56.296296296296305,0)" xlink:href="#P"/><use transform="matrix(0.14814814814814817,0,0,0.14814814814814817,85.92592592592594,0)" xlink:href="#al"/><use transform="matrix(0.14814814814814817,0,0,0.14814814814814817,118.37037037037038,0)" xlink:href="#ab"/><use transform="matrix(0.14814814814814817,0,0,0.14814814814814817,139.11111111111111,0)" xlink:href="#S"/><use transform="matrix(0.14814814814814817,0,0,0.14814814814814817,171.55555555555557,0)" xlink:href="#au"/><use transform="matrix(0.14814814814814817,0,0,0.14814814814814817,201.18518518518522,0)" xlink:href="#P"/><use transform="matrix(0.14814814814814817,0,0,0.14814814814814817,230.81481481481484,0)" xlink:href="#X"/><use transform="matrix(0.14814814814814817,0,0,0.14814814814814817,260.44444444444446,0)" xlink:href="#X"/><use transform="matrix(0.14814814814814817,0,0,0.14814814814814817,290.0740740740741,0)" xlink:href="#T"/><use transform="matrix(0.14814814814814817,0,0,0.14814814814814817,304.8888888888889,0)" xlink:href="#O"/><use transform="matrix(0.14814814814814817,0,0,0.14814814814814817,337.33333333333337,0)" xlink:href="#Y"/></g><path d="M128 0H69L1-190h53L99-40l48-150h52" id="aB"/><g id="E"><use transform="matrix(0.14814814814814817,0,0,0.14814814814814817,0,0)" xlink:href="#V"/><use transform="matrix(0.14814814814814817,0,0,0.14814814814814817,38.370370370370374,0)" xlink:href="#P"/><use transform="matrix(0.14814814814814817,0,0,0.14814814814814817,68,0)" xlink:href="#aB"/><use transform="matrix(0.14814814814814817,0,0,0.14814814814814817,97.62962962962962,0)" xlink:href="#P"/><use transform="matrix(0.14814814814814817,0,0,0.14814814814814817,127.25925925925925,0)" xlink:href="#ad"/><use transform="matrix(0.14814814814814817,0,0,0.14814814814814817,142.07407407407408,0)" xlink:href="#S"/><use transform="matrix(0.14814814814814817,0,0,0.14814814814814817,174.51851851851853,0)" xlink:href="#al"/><use transform="matrix(0.14814814814814817,0,0,0.14814814814814817,206.962962962963,0)" xlink:href="#T"/><use transform="matrix(0.14814814814814817,0,0,0.14814814814814817,221.7777777777778,0)" xlink:href="#O"/><use transform="matrix(0.14814814814814817,0,0,0.14814814814814817,254.22222222222226,0)" xlink:href="#Y"/></g><g id="F"><use transform="matrix(0.14814814814814817,0,0,0.14814814814814817,0,0)" xlink:href="#J"/><use transform="matrix(0.14814814814814817,0,0,0.14814814814814817,38.370370370370374,0)" xlink:href="#P"/><use transform="matrix(0.14814814814814817,0,0,0.14814814814814817,68,0)" xlink:href="#X"/><use transform="matrix(0.14814814814814817,0,0,0.14814814814814817,97.62962962962962,0)" xlink:href="#K"/><use transform="matrix(0.14814814814814817,0,0,0.14814814814814817,133.1851851851852,0)" xlink:href="#as"/><use transform="matrix(0.14814814814814817,0,0,0.14814814814814817,168.74074074074076,0)" xlink:href="#L"/><use transform="matrix(0.14814814814814817,0,0,0.14814814814814817,207.11111111111114,0)" xlink:href="#P"/><use transform="matrix(0.14814814814814817,0,0,0.14814814814814817,236.74074074074076,0)" xlink:href="#W"/><use transform="matrix(0.14814814814814817,0,0,0.14814814814814817,254.37037037037038,0)" xlink:href="#ag"/><use transform="matrix(0.14814814814814817,0,0,0.14814814814814817,284,0)" xlink:href="#ah"/></g><g id="G"><use transform="matrix(0.14814814814814817,0,0,0.14814814814814817,0,0)" xlink:href="#as"/><use transform="matrix(0.14814814814814817,0,0,0.14814814814814817,35.55555555555556,0)" xlink:href="#at"/><use transform="matrix(0.14814814814814817,0,0,0.14814814814814817,65.18518518518519,0)" xlink:href="#al"/><use transform="matrix(0.14814814814814817,0,0,0.14814814814814817,97.62962962962965,0)" xlink:href="#ad"/><use transform="matrix(0.14814814814814817,0,0,0.14814814814814817,112.44444444444446,0)" xlink:href="#S"/><use transform="matrix(0.14814814814814817,0,0,0.14814814814814817,144.8888888888889,0)" xlink:href="#ab"/><use transform="matrix(0.14814814814814817,0,0,0.14814814814814817,165.62962962962965,0)" xlink:href="#T"/><use transform="matrix(0.14814814814814817,0,0,0.14814814814814817,180.44444444444446,0)" xlink:href="#O"/><use transform="matrix(0.14814814814814817,0,0,0.14814814814814817,212.8888888888889,0)" xlink:href="#Y"/></g><path d="M135-194c52 0 70 43 70 98 0 56-19 99-73 100-30 1-46-15-58-35L72 0H24l1-261h50v104c11-23 29-37 60-37zM114-30c31 0 40-27 40-66 0-37-7-63-39-63s-41 28-41 65c0 36 8 64 40 64" id="aC"/><g id="H"><use transform="matrix(0.14814814814814817,0,0,0.14814814814814817,0,0)" xlink:href="#ae"/><use transform="matrix(0.14814814814814817,0,0,0.14814814814814817,14.814814814814817,0)" xlink:href="#O"/><use transform="matrix(0.14814814814814817,0,0,0.14814814814814817,47.25925925925927,0)" xlink:href="#W"/><use transform="matrix(0.14814814814814817,0,0,0.14814814814814817,64.8888888888889,0)" xlink:href="#P"/><use transform="matrix(0.14814814814814817,0,0,0.14814814814814817,94.51851851851853,0)" xlink:href="#ab"/><use transform="matrix(0.14814814814814817,0,0,0.14814814814814817,115.25925925925928,0)" xlink:href="#al"/><use transform="matrix(0.14814814814814817,0,0,0.14814814814814817,147.70370370370372,0)" xlink:href="#ab"/><use transform="matrix(0.14814814814814817,0,0,0.14814814814814817,168.44444444444446,0)" xlink:href="#P"/><use transform="matrix(0.14814814814814817,0,0,0.14814814814814817,198.07407407407408,0)" xlink:href="#W"/><use transform="matrix(0.14814814814814817,0,0,0.14814814814814817,215.7037037037037,0)" xlink:href="#U"/><use transform="matrix(0.14814814814814817,0,0,0.14814814814814817,245.3333333333333,0)" xlink:href="#aC"/><use transform="matrix(0.14814814814814817,0,0,0.14814814814814817,277.77777777777777,0)" xlink:href="#T"/><use transform="matrix(0.14814814814814817,0,0,0.14814814814814817,292.5925925925926,0)" xlink:href="#ad"/><use transform="matrix(0.14814814814814817,0,0,0.14814814814814817,307.40740740740745,0)" xlink:href="#T"/><use transform="matrix(0.14814814814814817,0,0,0.14814814814814817,322.2222222222223,0)" xlink:href="#W"/><use transform="matrix(0.14814814814814817,0,0,0.14814814814814817,339.8518518518519,0)" xlink:href="#an"/></g><g id="I"><use transform="matrix(0.14814814814814817,0,0,0.14814814814814817,0,0)" xlink:href="#aa"/><use transform="matrix(0.14814814814814817,0,0,0.14814814814814817,28.44444444444445,0)" xlink:href="#P"/><use transform="matrix(0.14814814814814817,0,0,0.14814814814814817,58.07407407407408,0)" xlink:href="#au"/><use transform="matrix(0.14814814814814817,0,0,0.14814814814814817,87.70370370370374,0)" xlink:href="#ak"/><use transform="matrix(0.14814814814814817,0,0,0.14814814814814817,120.14814814814818,0)" xlink:href="#O"/><use transform="matrix(0.14814814814814817,0,0,0.14814814814814817,152.59259259259264,0)" xlink:href="#T"/><use transform="matrix(0.14814814814814817,0,0,0.14814814814814817,167.40740740740748,0)" xlink:href="#ap"/><use transform="matrix(0.14814814814814817,0,0,0.14814814814814817,199.8518518518519,0)" xlink:href="#Q"/><use transform="matrix(0.14814814814814817,0,0,0.14814814814814817,232.29629629629636,0)" xlink:href="#P"/><use transform="matrix(0.14814814814814817,0,0,0.14814814814814817,261.925925925926,0)" xlink:href="#X"/></g></defs></g></svg>