<svg xmlns="http://www.w3.org/2000/svg" xmlns:xlink="http://www.w3.org/1999/xlink" xmlns:lucid="lucid" width="2799" height="1181"><g transform="translate(119 -1063)" lucid:page-tab-id="0_0"><path d="M66 2062.5a6 6 0 0 1-6-6v-418.27a6 6 0 0 1 6-6h125.97a6 6 0 0 1 6 6v418.26a6 6 0 0 1-6 6z" stroke="#000" stroke-opacity="0" stroke-width="2" fill="#f2f3f5"/><path d="M255.56 2062.5a6 6 0 0 1-6-6v-418.27a6 6 0 0 1 6-6h125.98a6 6 0 0 1 6 6v418.26a6 6 0 0 1-6 6z" stroke="#000" stroke-opacity="0" stroke-width="2" fill="#cfe4ff"/><path d="M393.54 2062.5a6 6 0 0 1-6-6v-418.27a6 6 0 0 1 6-6H519.5a6 6 0 0 1 6 6v418.26a6 6 0 0 1-6 6z" stroke="#000" stroke-opacity="0" stroke-width="2" fill="#fc9432"/><path d="M531.5 2062.5a6 6 0 0 1-6-6v-418.27a6 6 0 0 1 6-6H657.5a6 6 0 0 1 6 6v418.26a6 6 0 0 1-6 6z" stroke="#000" stroke-opacity="0" stroke-width="2" fill="#ffe342"/><path d="M669.48 2062.5a6 6 0 0 1-6-6v-418.27a6 6 0 0 1 6-6h125.97a6 6 0 0 1 6 6v418.26a6 6 0 0 1-6 6z" stroke="#000" stroke-opacity="0" stroke-width="2" fill="#54c45e"/><path d="M859.04 2062.5a6 6 0 0 1-6-6v-418.27a6 6 0 0 1 6-6H985a6 6 0 0 1 6 6v418.26a6 6 0 0 1-6 6z" stroke="#000" stroke-opacity="0" stroke-width="2" fill="#cfe4ff"/><path d="M997 2062.5a6 6 0 0 1-6-6v-418.27a6 6 0 0 1 6-6h126a6 6 0 0 1 6 6v418.26a6 6 0 0 1-6 6z" stroke="#000" stroke-opacity="0" stroke-width="2" fill="#edf5ff"/><path d="M1179.04 2062.5a6 6 0 0 1-6-6v-418.27a6 6 0 0 1 6-6H1305a6 6 0 0 1 6 6v418.26a6 6 0 0 1-6 6z" stroke="#000" stroke-opacity="0" stroke-width="2" fill="#cfe4ff"/><path d="M1373.42 2062.5a6 6 0 0 1-6-6v-418.27a6 6 0 0 1 6-6h125.97a6 6 0 0 1 6 6v418.26a6 6 0 0 1-6 6z" stroke="#000" stroke-opacity="0" stroke-width="2" fill="#54c45e"/><path d="M1511.4 2062.5a6 6 0 0 1-6-6v-418.27a6 6 0 0 1 6-6h125.96a6 6 0 0 1 6 6v418.26a6 6 0 0 1-6 6z" stroke="#000" stroke-opacity="0" stroke-width="2" fill="#c3f7c8"/><path d="M1706 2062.5a6 6 0 0 1-6-6v-418.27a6 6 0 0 1 6-6h125.97a6 6 0 0 1 6 6v418.26a6 6 0 0 1-6 6z" stroke="#000" stroke-opacity="0" stroke-width="2" fill="#ffe342"/><path d="M1706 1522.5a6 6 0 0 1-6-6v-418.27a6 6 0 0 1 6-6h125.97a6 6 0 0 1 6 6v418.26a6 6 0 0 1-6 6z" stroke="#000" stroke-opacity="0" stroke-width="2" fill="#fc9432"/><path d="M1906 2062.5a6 6 0 0 1-6-6v-418.27a6 6 0 0 1 6-6h125.97a6 6 0 0 1 6 6v418.26a6 6 0 0 1-6 6z" stroke="#000" stroke-opacity="0" stroke-width="2" fill="#cfe4ff"/><path d="M1906 1522.5a6 6 0 0 1-6-6v-418.27a6 6 0 0 1 6-6h125.97a6 6 0 0 1 6 6v418.26a6 6 0 0 1-6 6z" stroke="#000" stroke-opacity="0" stroke-width="2" fill="#6db1ff"/><path d="M2106 2062.5a6 6 0 0 1-6-6v-418.27a6 6 0 0 1 6-6h125.97a6 6 0 0 1 6 6v418.26a6 6 0 0 1-6 6z" stroke="#000" stroke-opacity="0" stroke-width="2" fill="#ffd6f5"/><path d="M2243.97 2062.5a6 6 0 0 1-6-6v-418.27a6 6 0 0 1 6-6h125.97a6 6 0 0 1 6 6v418.26a6 6 0 0 1-6 6z" stroke="#000" stroke-opacity="0" stroke-width="2" fill="#fff7a1"/><path d="M2368.03 2062.5a6 6 0 0 1-6-6v-418.27a6 6 0 0 1 6-6H2494a6 6 0 0 1 6 6v418.26a6 6 0 0 1-6 6z" stroke="#000" stroke-opacity="0" stroke-width="2" fill="#c3f7c8"/><path d="M-100 1810.53a6 6 0 0 1 6-6h65.22a6 6 0 0 0 6-6v-34a2.3 2.3 0 0 1 4.02-1.53L56 1846.05a6.67 6.67 0 0 1 0 8.92l-74.76 83.06a2.3 2.3 0 0 1-4.02-1.54v-34a6 6 0 0 0-6-6H-94a6 6 0 0 1-6-6zM2500 1810.53a6 6 0 0 1 6-6h65.22a6 6 0 0 0 6-6v-34a2.3 2.3 0 0 1 4.02-1.53l74.75 83.05a6.67 6.67 0 0 1 0 8.92l-74.76 83.06a2.3 2.3 0 0 1-4.02-1.54v-34a6 6 0 0 0-6-6H2506a6 6 0 0 1-6-6z" stroke="#000" stroke-opacity="0" stroke-width="2" fill="#1071e5"/><path d="M-56.96 1722.5a1 1 0 0 1-1-1.02V1223.5a1 1 0 0 1 1-1 1 1 0 0 1 1.02 1v497.98a1 1 0 0 1-1.02 1z" fill="none"/><use xlink:href="#a" transform="matrix(6.123233995736766e-17,-1,1,6.123233995736766e-17,-57.971544234492285,1722.4899639634805) translate(4.518518518518476 42.66666666666667)"/><use xlink:href="#b" transform="matrix(6.123233995736766e-17,-1,1,6.123233995736766e-17,-57.971544234492285,1722.4899639634805) translate(149.11111111111111 42.66666666666667)"/><use xlink:href="#c" transform="matrix(6.123233995736766e-17,-1,1,6.123233995736766e-17,-57.971544234492285,1722.4899639634805) translate(270.44444444444446 42.66666666666667)"/><use xlink:href="#d" transform="matrix(6.123233995736766e-17,-1,1,6.123233995736766e-17,-57.971544234492285,1722.4899639634805) translate(314.8888888888889 42.66666666666667)"/><use xlink:href="#e" transform="matrix(6.123233995736766e-17,-1,1,6.123233995736766e-17,-57.971544234492285,1722.4899639634805) translate(448.2222222222223 42.66666666666667)"/><path d="M101 2042.5a1 1 0 0 1-1-1.02V1643.5a1 1 0 0 1 1-1 1 1 0 0 1 1.03 1v397.98a1 1 0 0 1-1.02 1z" fill="none"/><use xlink:href="#f" transform="matrix(6.123233995736766e-17,-1,1,6.123233995736766e-17,100,2042.4899639634805) translate(30.074074074074048 42.66666666666667)"/><use xlink:href="#g" transform="matrix(6.123233995736766e-17,-1,1,6.123233995736766e-17,100,2042.4899639634805) translate(160.14814814814812 42.66666666666667)"/><path d="M292.5 2050.5a1 1 0 0 1-1.02-1v-397.97a1 1 0 0 1 1-1.02 1 1 0 0 1 1.02 1.03v397.97a1 1 0 0 1-1 1z" fill="none"/><use xlink:href="#h" transform="matrix(6.123233995736766e-17,-1,1,6.123233995736766e-17,291.4758860807274,2050.514233726316) translate(123.11111111111111 42.66666666666667)"/><path d="M430.58 2050.5a1 1 0 0 1-1.02-1v-397.97a1 1 0 0 1 1.02-1.02 1 1 0 0 1 1 1.03v397.97a1 1 0 0 1-1 1z" fill="none"/><use xlink:href="#i" transform="matrix(6.123233995736766e-17,-1,1,6.123233995736766e-17,429.5640505896383,2050.5142337263164) translate(49.25925925925924 42.66666666666667)"/><use xlink:href="#j" transform="matrix(6.123233995736766e-17,-1,1,6.123233995736766e-17,429.5640505896383,2050.5142337263164) translate(211.77777777777777 42.66666666666667)"/><path d="M570.58 2042.5a1 1 0 0 1-1.02-1.02V1643.5a1 1 0 0 1 1.02-1 1 1 0 0 1 1 1v397.98a1 1 0 0 1-1 1z" fill="none"/><use xlink:href="#k" transform="matrix(6.123233995736766e-17,-1,1,6.123233995736766e-17,569.5640505896383,2042.489963963481) translate(133.55555555555554 42.66666666666667)"/><path d="M706.52 2047.36a1 1 0 0 1-1-1v-397.98a1 1 0 0 1 1-1.02 1 1 0 0 1 1.02 1.02v397.97a1 1 0 0 1-1.02 1z" fill="none"/><use xlink:href="#l" transform="matrix(6.123233995736766e-17,-1,1,6.123233995736766e-17,705.5071390586229,2047.3609917084973) translate(83.18518518518518 42.66666666666667)"/><use xlink:href="#m" transform="matrix(6.123233995736766e-17,-1,1,6.123233995736766e-17,705.5071390586229,2047.3609917084973) translate(201.55555555555554 42.66666666666667)"/><path d="M914.06 2042.5a1 1 0 0 1-1.02-1.02V1643.5a1 1 0 0 1 1.02-1 1 1 0 0 1 1 1v397.98a1 1 0 0 1-1 1z" fill="none"/><use xlink:href="#n" transform="matrix(6.123233995736766e-17,-1,1,6.123233995736766e-17,913.0427338827536,2042.4899639634814) translate(32.888888888888886 42.66666666666667)"/><use xlink:href="#o" transform="matrix(6.123233995736766e-17,-1,1,6.123233995736766e-17,913.0427338827536,2042.4899639634814) translate(180.5925925925926 42.66666666666667)"/><use xlink:href="#p" transform="matrix(6.123233995736766e-17,-1,1,6.123233995736766e-17,913.0427338827536,2042.4899639634814) translate(337.4814814814815 42.66666666666667)"/><path d="M1034.06 2050.5a1 1 0 0 1-1.02-1v-397.97a1 1 0 0 1 1.02-1.02 1 1 0 0 1 1 1.03v397.97a1 1 0 0 1-1 1z" fill="none"/><use xlink:href="#n" transform="matrix(6.123233995736766e-17,-1,1,6.123233995736766e-17,1033.0427338827535,2050.5142337263164) translate(32.888888888888886 42.66666666666667)"/><use xlink:href="#o" transform="matrix(6.123233995736766e-17,-1,1,6.123233995736766e-17,1033.0427338827535,2050.5142337263164) translate(180.5925925925926 42.66666666666667)"/><use xlink:href="#q" transform="matrix(6.123233995736766e-17,-1,1,6.123233995736766e-17,1033.0427338827535,2050.5142337263164) translate(337.4814814814815 42.66666666666667)"/><path d="M1214.06 2050.5a1 1 0 0 1-1.02-1v-397.97a1 1 0 0 1 1.02-1.02 1 1 0 0 1 1 1.03v397.97a1 1 0 0 1-1 1z" fill="none"/><use xlink:href="#n" transform="matrix(6.123233995736766e-17,-1,1,6.123233995736766e-17,1213.0427338827535,2050.5142337263164) translate(18.074074074074076 42.66666666666667)"/><use xlink:href="#o" transform="matrix(6.123233995736766e-17,-1,1,6.123233995736766e-17,1213.0427338827535,2050.5142337263164) translate(165.7777777777778 42.66666666666667)"/><use xlink:href="#r" transform="matrix(6.123233995736766e-17,-1,1,6.123233995736766e-17,1213.0427338827535,2050.5142337263164) translate(322.6666666666667 42.66666666666667)"/><path d="M1378.33 2050.5a1 1 0 0 1-1-1v-397.97a1 1 0 0 1 1-1.02 1 1 0 0 1 1 1.03v397.97a1 1 0 0 1-1 1z" fill="none"/><use xlink:href="#s" transform="matrix(6.123233995736766e-17,-1,1,6.123233995736766e-17,1377.3165969230547,2050.514233726315) translate(60.518518518518505 42.66666666666667)"/><use xlink:href="#t" transform="matrix(6.123233995736766e-17,-1,1,6.123233995736766e-17,1377.3165969230547,2050.514233726315) translate(240.96296296296296 42.66666666666667)"/><use xlink:href="#u" transform="matrix(6.123233995736766e-17,-1,1,6.123233995736766e-17,1377.3165969230547,2050.514233726315) translate(142.37037037037038 106.66666666666667)"/><path d="M1548.43 2050.5a1 1 0 0 1-1-1v-397.97a1 1 0 0 1 1-1.02 1 1 0 0 1 1.02 1.03v397.97a1 1 0 0 1-1.02 1z" fill="none"/><use xlink:href="#v" transform="matrix(6.123233995736766e-17,-1,1,6.123233995736766e-17,1547.4187745497118,2050.514233726315) translate(89.11111111111111 42.66666666666667)"/><path d="M1746.38 2082.5a6 6 0 0 1-6-6v-451.77a6 6 0 0 1 6-6h7.07a6 6 0 0 1 6 6v451.76a6 6 0 0 1-6 6z" fill="none"/><use xlink:href="#w" transform="matrix(6.123233995736766e-17,-1,1,6.123233995736766e-17,1740.3835269816632,2082.4899639634805) translate(48.481481481481495 35.55555555555556)"/><use xlink:href="#x" transform="matrix(6.123233995736766e-17,-1,1,6.123233995736766e-17,1740.3835269816632,2082.4899639634805) translate(193.91358024691357 35.55555555555556)"/><use xlink:href="#y" transform="matrix(6.123233995736766e-17,-1,1,6.123233995736766e-17,1740.3835269816632,2082.4899639634805) translate(295.0246913580247 35.55555555555556)"/><path d="M1748.03 1539.24a6 6 0 0 1-6-6v-451.76a6 6 0 0 1 6-6h7.07a6 6 0 0 1 6 6v451.76a6 6 0 0 1-6 6z" fill="none"/><use xlink:href="#w" transform="matrix(6.123233995736766e-17,-1,1,6.123233995736766e-17,1742.0284557655077,1539.2404031459835) translate(36.135802469135825 35.55555555555556)"/><use xlink:href="#z" transform="matrix(6.123233995736766e-17,-1,1,6.123233995736766e-17,1742.0284557655077,1539.2404031459835) translate(181.5679012345679 35.55555555555556)"/><use xlink:href="#y" transform="matrix(6.123233995736766e-17,-1,1,6.123233995736766e-17,1742.0284557655077,1539.2404031459835) translate(307.3703703703703 35.55555555555556)"/><path d="M1948.03 1539.24a6 6 0 0 1-6-6v-451.76a6 6 0 0 1 6-6h7.07a6 6 0 0 1 6 6v451.76a6 6 0 0 1-6 6z" fill="none"/><use xlink:href="#n" transform="matrix(6.123233995736766e-17,-1,1,6.123233995736766e-17,1942.0284557655077,1539.2404031459832) translate(71.11111111111109 42.66666666666667)"/><use xlink:href="#A" transform="matrix(6.123233995736766e-17,-1,1,6.123233995736766e-17,1942.0284557655077,1539.2404031459832) translate(218.8148148148148 42.66666666666667)"/><path d="M1948.03 2082.5a6 6 0 0 1-6-6v-451.77a6 6 0 0 1 6-6h7.07a6 6 0 0 1 6 6v451.76a6 6 0 0 1-6 6z" fill="none"/><use xlink:href="#B" transform="matrix(6.123233995736766e-17,-1,1,6.123233995736766e-17,1942.0284557655077,2082.4899639634805) translate(131.55555555555554 42.66666666666667)"/><path d="M2146 2082.5a6 6 0 0 1-6-6v-451.77a6 6 0 0 1 6-6h7.07a6 6 0 0 1 6 6v451.76a6 6 0 0 1-6 6z" fill="none"/><use xlink:href="#C" transform="matrix(6.123233995736766e-17,-1,1,6.123233995736766e-17,2140.0000000000005,2082.4899639634805) translate(117.7037037037037 42.66666666666667)"/><use xlink:href="#m" transform="matrix(6.123233995736766e-17,-1,1,6.123233995736766e-17,2140.0000000000005,2082.4899639634805) translate(231.03703703703704 42.66666666666667)"/><path d="M2277.4 2082.5a6 6 0 0 1-6-6v-451.77a6 6 0 0 1 6-6h7.07a6 6 0 0 1 6 6v451.76a6 6 0 0 1-6 6z" fill="none"/><use xlink:href="#D" transform="matrix(6.123233995736766e-17,-1,1,6.123233995736766e-17,2271.397754864416,2082.4899639634805) translate(128.7407407407407 42.66666666666667)"/><path d="M2406 2074.37a6 6 0 0 1-6-6V1616.6a6 6 0 0 1 6-6h7.07a6 6 0 0 1 6 6v451.77a6 6 0 0 1-6 6z" fill="none"/><use xlink:href="#E" transform="matrix(6.123233995736766e-17,-1,1,6.123233995736766e-17,2400,2074.3693754009673) translate(152.14814814814815 42.66666666666667)"/><path d="M2546 1722.5a6 6 0 0 1-6-6v-451.77a6 6 0 0 1 6-6h7.07a6 6 0 0 1 6 6v451.76a6 6 0 0 1-6 6z" fill="none"/><use xlink:href="#F" transform="matrix(6.123233995736766e-17,-1,1,6.123233995736766e-17,2540,1722.4899639634805) translate(144.96296296296293 42.66666666666667)"/><path d="M199.47 1847.36h29.47" stroke="#3a414a" stroke-width="3" fill="none"/><path d="M199.5 1848.84h-1.53v-2.95h1.54z" stroke="#3a414a" stroke-width=".05" fill="#3a414a"/><path d="M244.7 1847.36l-14.26 4.64v-9.27z" stroke="#3a414a" stroke-width="3" fill="#3a414a"/><path d="M802.95 1847.36h29.47" stroke="#000" stroke-width="3" fill="none"/><path d="M803 1848.84h-1.55v-2.95H803z" stroke="#000" stroke-width=".05"/><path d="M848.2 1847.36L833.9 1852v-9.27z" stroke="#000" stroke-width="3"/><path d="M1312.5 1847.36h34.3" stroke="#000" stroke-width="3" fill="none"/><path d="M1312.55 1848.84H1311v-2.95h1.55z" stroke="#000" stroke-width=".05"/><path d="M1362.56 1847.36l-14.26 4.64v-9.27z" stroke="#000" stroke-width="3"/><path d="M1644.86 1847.36h34.52" stroke="#000" stroke-width="3" fill="none"/><path d="M1644.9 1848.84h-1.54v-2.95h1.54z" stroke="#000" stroke-width=".05"/><path d="M1695.15 1847.36l-14.27 4.64v-9.27z" stroke="#000" stroke-width="3"/><path d="M1839.47 1847.36h39.9" stroke="#000" stroke-width="3" fill="none"/><path d="M1839.5 1848.84h-1.53v-2.95h1.54z" stroke="#000" stroke-width=".05"/><path d="M1895.15 1847.36l-14.27 4.64v-9.27z" stroke="#000" stroke-width="3"/><path d="M2039.47 1847.36h39.9" stroke="#000" stroke-width="3" fill="none"/><path d="M2039.5 1848.84h-1.53v-2.95h1.54z" stroke="#000" stroke-width=".05"/><path d="M2095.15 1847.36l-14.27 4.64v-9.27z" stroke="#000" stroke-width="3"/><path d="M1769 1630.73v-87.62" stroke="#000" stroke-width="3" fill="none"/><path d="M1770.46 1632.23h-2.95v-1.54h2.96z" stroke="#000" stroke-width=".05"/><path d="M1769 1527.34l4.62 14.27h-9.27z" stroke="#000" stroke-width="3"/><path d="M1839.47 1307.36h39.9" stroke="#000" stroke-width="3" fill="none"/><path d="M1839.5 1308.84h-1.53v-2.95h1.54z" stroke="#000" stroke-width=".05"/><path d="M1895.15 1307.36l-14.27 4.64v-9.27z" stroke="#000" stroke-width="3"/><path d="M1969 1524v87.6" stroke="#000" stroke-width="3" fill="none"/><path d="M1970.46 1524.03h-2.95v-1.54h2.96z" stroke="#000" stroke-width=".05"/><path d="M1969 1627.38l-4.65-14.27h9.27z" stroke="#000" stroke-width="3"/><g fill="none"><path d="M1151 1697.5v290"/><path d="M1151 1697.5v9.66m0 38.66v19.34m0 38.66v19.34m0 38.66v19.34m0 38.66v19.34m0 38.66v9.67" stroke="#000" stroke-width="10" stroke-linecap="round"/></g><g fill="none"><path d="M1305 2100a6 6 0 0 1 6 6v88a6 6 0 0 1-6 6H857a6 6 0 0 1-6-6v-88a6 6 0 0 1 6-6z"/><path d="M851 2100c0 5.52 4.5 10 10 10h210c5.54 0 10 4.48 10 10 0-5.52 4.5-10 10-10h210c5.54 0 10-4.48 10-10" stroke="#000" stroke-width="2"/></g><g><use xlink:href="#G" transform="matrix(1,-2.4492935982947064e-16,2.4492935982947064e-16,1,856.0142781172459,2135) translate(12.944444444444485 32)"/><use xlink:href="#H" transform="matrix(1,-2.4492935982947064e-16,2.4492935982947064e-16,1,856.0142781172459,2135) translate(367.05555555555554 32)"/><use xlink:href="#I" transform="matrix(1,-2.4492935982947064e-16,2.4492935982947064e-16,1,856.0142781172459,2135) translate(165.11111111111111 80)"/></g><g fill="none"><path d="M1516.9 2100a6 6 0 0 1 6 6v88a6 6 0 0 1-6 6h-143.48a6 6 0 0 1-6-6v-88a6 6 0 0 1 6-6z"/><path d="M1367.42 2100c0 5.52 4.48 10 10 10h57.74c5.52 0 10 4.48 10 10 0-5.52 4.48-10 10-10h57.74c5.52 0 10-4.48 10-10" stroke="#000" stroke-width="2"/></g><g><use xlink:href="#J" transform="matrix(1,-2.4492935982947064e-16,2.4492935982947064e-16,1,1372.4187745497118,2134.999999999999) translate(-8 32)"/></g><g fill="none"><path d="M1849.48 2100a6 6 0 0 1 6 6v88a6 6 0 0 1-6 6H1706a6 6 0 0 1-6-6v-88a6 6 0 0 1 6-6z"/><path d="M1700 2100c0 5.52 4.48 10 10 10h57.74c5.52 0 10 4.48 10 10 0-5.52 4.48-10 10-10h57.74c5.52 0 10-4.48 10-10" stroke="#000" stroke-width="2"/></g><g><use xlink:href="#K" transform="matrix(1,-2.4492935982947064e-16,2.4492935982947064e-16,1,1705,2134.999999999999) translate(-22.333333333333357 32)"/></g><defs><path d="M24 0v-248h52V0H24" id="L"/><path d="M135-194c87-1 58 113 63 194h-50c-7-57 23-157-34-157-59 0-34 97-39 157H25l-1-190h47c2 12-1 28 3 38 12-26 28-41 61-42" id="M"/><path d="M135-194c53 0 70 44 70 98 0 56-19 98-73 100-31 1-45-17-59-34 3 33 2 69 2 105H25l-1-265h48c2 10 0 23 3 31 11-24 29-35 60-35zM114-30c33 0 39-31 40-66 0-38-9-64-40-64-56 0-55 130 0 130" id="N"/><path d="M85 4C-2 5 27-109 22-190h50c7 57-23 150 33 157 60-5 35-97 40-157h50l1 190h-47c-2-12 1-28-3-38-12 25-28 42-61 42" id="O"/><path d="M115-3C79 11 28 4 28-45v-112H4v-33h27l15-45h31v45h36v33H77v99c-1 23 16 31 38 25v30" id="P"/><g id="a"><use transform="matrix(0.14814814814814817,0,0,0.14814814814814817,0,0)" xlink:href="#L"/><use transform="matrix(0.14814814814814817,0,0,0.14814814814814817,14.814814814814817,0)" xlink:href="#M"/><use transform="matrix(0.14814814814814817,0,0,0.14814814814814817,47.25925925925927,0)" xlink:href="#N"/><use transform="matrix(0.14814814814814817,0,0,0.14814814814814817,79.70370370370374,0)" xlink:href="#O"/><use transform="matrix(0.14814814814814817,0,0,0.14814814814814817,112.14814814814818,0)" xlink:href="#P"/></g><path d="M67-93c0 74 22 123 53 168H70C40 30 18-18 18-93s22-123 52-168h50c-32 44-53 94-53 168" id="Q"/><path d="M23 0v-37h61v-169l-59 37v-38l62-41h46v211h57V0H23" id="R"/><path d="M139-81c0-46-55-55-73-27H18l9-140h149v37H72l-4 63c44-38 133-4 122 66C201 21 21 35 11-62l49-4c5 18 15 30 39 30 26 0 40-18 40-45" id="S"/><path d="M101-251c68 0 84 54 84 127C185-50 166 4 99 4S15-52 14-124c-1-75 17-127 87-127zm-1 216c37-5 36-46 36-89s4-89-36-89c-39 0-36 45-36 89 0 43-3 85 36 89" id="T"/><g id="b"><use transform="matrix(0.14814814814814817,0,0,0.14814814814814817,0,0)" xlink:href="#Q"/><use transform="matrix(0.14814814814814817,0,0,0.14814814814814817,17.629629629629633,0)" xlink:href="#R"/><use transform="matrix(0.14814814814814817,0,0,0.14814814814814817,47.25925925925927,0)" xlink:href="#S"/><use transform="matrix(0.14814814814814817,0,0,0.14814814814814817,76.8888888888889,0)" xlink:href="#T"/></g><path d="M144 0l-44-69L55 0H2l70-98-66-92h53l41 62 40-62h54l-67 91 71 99h-54" id="U"/><use transform="matrix(0.14814814814814817,0,0,0.14814814814814817,0,0)" xlink:href="#U" id="c"/><g id="d"><use transform="matrix(0.14814814814814817,0,0,0.14814814814814817,0,0)" xlink:href="#R"/><use transform="matrix(0.14814814814814817,0,0,0.14814814814814817,29.629629629629633,0)" xlink:href="#S"/><use transform="matrix(0.14814814814814817,0,0,0.14814814814814817,59.25925925925927,0)" xlink:href="#T"/><use transform="matrix(0.14814814814814817,0,0,0.14814814814814817,88.8888888888889,0)" xlink:href="#U"/></g><path d="M128-127c34 4 56 21 59 58 7 91-148 94-172 28-4-9-6-17-7-26l51-5c1 24 16 35 40 36 23 0 39-12 38-36-1-31-31-36-65-34v-40c32 2 59-3 59-33 0-20-13-33-34-33s-33 13-35 32l-50-3c6-44 37-68 86-68 50 0 83 20 83 66 0 35-22 52-53 58" id="V"/><path d="M102-93c0 74-22 123-52 168H0C30 29 54-18 53-93c0-74-22-123-53-168h50c30 45 52 94 52 168" id="W"/><g id="e"><use transform="matrix(0.14814814814814817,0,0,0.14814814814814817,0,0)" xlink:href="#V"/><use transform="matrix(0.14814814814814817,0,0,0.14814814814814817,29.629629629629633,0)" xlink:href="#W"/></g><path d="M210 0H11v-37l134-170H24v-41h178v36L68-41h142V0" id="X"/><path d="M185-48c-13 30-37 53-82 52C43 2 14-33 14-96s30-98 90-98c62 0 83 45 84 108H66c0 31 8 55 39 56 18 0 30-7 34-22zm-45-69c5-46-57-63-70-21-2 6-4 13-4 21h74" id="Y"/><path d="M135-150c-39-12-60 13-60 57V0H25l-1-190h47c2 13-1 29 3 40 6-28 27-53 61-41v41" id="Z"/><path d="M110-194c64 0 96 36 96 99 0 64-35 99-97 99-61 0-95-36-95-99 0-62 34-99 96-99zm-1 164c35 0 45-28 45-65 0-40-10-65-43-65-34 0-45 26-45 65 0 36 10 65 43 65" id="aa"/><g id="f"><use transform="matrix(0.14814814814814817,0,0,0.14814814814814817,0,0)" xlink:href="#X"/><use transform="matrix(0.14814814814814817,0,0,0.14814814814814817,32.44444444444445,0)" xlink:href="#Y"/><use transform="matrix(0.14814814814814817,0,0,0.14814814814814817,62.07407407407408,0)" xlink:href="#Z"/><use transform="matrix(0.14814814814814817,0,0,0.14814814814814817,82.81481481481482,0)" xlink:href="#aa"/></g><path d="M24-248c93 1 206-16 204 79-1 75-69 88-152 82V0H24v-248zm52 121c47 0 100 7 100-41 0-47-54-39-100-39v80" id="ab"/><path d="M133-34C117-15 103 5 69 4 32 3 11-16 11-54c-1-60 55-63 116-61 1-26-3-47-28-47-18 1-26 9-28 27l-52-2c7-38 36-58 82-57s74 22 75 68l1 82c-1 14 12 18 25 15v27c-30 8-71 5-69-32zm-48 3c29 0 43-24 42-57-32 0-66-3-65 30 0 17 8 27 23 27" id="ac"/><path d="M88-194c31-1 46 15 58 34l-1-101h50l1 261h-48c-2-10 0-23-3-31C134-8 116 4 84 4 32 4 16-41 15-95c0-56 19-97 73-99zm17 164c33 0 40-30 41-66 1-37-9-64-41-64s-38 30-39 65c0 43 13 65 39 65" id="ad"/><path d="M25-224v-37h50v37H25zM25 0v-190h50V0H25" id="ae"/><path d="M195-6C206 82 75 100 31 46c-4-6-6-13-8-21l49-6c3 16 16 24 34 25 40 0 42-37 40-79-11 22-30 35-61 35-53 0-70-43-70-97 0-56 18-96 73-97 30 0 46 14 59 34l2-30h47zm-90-29c32 0 41-27 41-63 0-35-9-62-40-62-32 0-39 29-40 63 0 36 9 62 39 62" id="af"/><g id="g"><use transform="matrix(0.14814814814814817,0,0,0.14814814814814817,0,0)" xlink:href="#ab"/><use transform="matrix(0.14814814814814817,0,0,0.14814814814814817,35.55555555555556,0)" xlink:href="#ac"/><use transform="matrix(0.14814814814814817,0,0,0.14814814814814817,65.18518518518519,0)" xlink:href="#ad"/><use transform="matrix(0.14814814814814817,0,0,0.14814814814814817,97.62962962962965,0)" xlink:href="#ad"/><use transform="matrix(0.14814814814814817,0,0,0.14814814814814817,130.0740740740741,0)" xlink:href="#ae"/><use transform="matrix(0.14814814814814817,0,0,0.14814814814814817,144.8888888888889,0)" xlink:href="#M"/><use transform="matrix(0.14814814814814817,0,0,0.14814814814814817,177.33333333333334,0)" xlink:href="#af"/></g><path d="M67-125c0 53 21 87 73 88 37 1 54-22 65-47l45 17C233-25 199 4 140 4 58 4 20-42 15-125 8-235 124-281 211-232c18 10 29 29 36 50l-46 12c-8-25-30-41-62-41-52 0-71 34-72 86" id="ag"/><path d="M140-251c80 0 125 45 125 126S219 4 139 4C58 4 15-44 15-125s44-126 125-126zm-1 214c52 0 73-35 73-88 0-50-21-86-72-86-52 0-73 35-73 86s22 88 72 88" id="ah"/><path d="M175 0L67-191c6 58 2 128 3 191H24v-248h59L193-55c-6-58-2-129-3-193h46V0h-61" id="ai"/><path d="M147 0H94L2-248h55l64 206c17-72 42-137 63-206h54" id="aj"/><g id="h"><use transform="matrix(0.14814814814814817,0,0,0.14814814814814817,0,0)" xlink:href="#ag"/><use transform="matrix(0.14814814814814817,0,0,0.14814814814814817,38.370370370370374,0)" xlink:href="#ah"/><use transform="matrix(0.14814814814814817,0,0,0.14814814814814817,79.85185185185186,0)" xlink:href="#ai"/><use transform="matrix(0.14814814814814817,0,0,0.14814814814814817,118.22222222222221,0)" xlink:href="#aj"/></g><path d="M182-130c37 4 62 22 62 59C244 23 116-4 24 0v-248c84 5 203-23 205 63 0 31-19 50-47 55zM76-148c40-3 101 13 101-30 0-44-60-28-101-31v61zm0 110c48-3 116 14 116-37 0-48-69-32-116-35v72" id="ak"/><path d="M190-63c-7 42-38 67-86 67-59 0-84-38-90-98-12-110 154-137 174-36l-49 2c-2-19-15-32-35-32-30 0-35 28-38 64-6 74 65 87 74 30" id="al"/><path d="M114-157C55-157 80-60 75 0H25v-261h50l-1 109c12-26 28-41 61-42 86-1 58 113 63 194h-50c-7-57 23-157-34-157" id="am"/><g id="i"><use transform="matrix(0.14814814814814817,0,0,0.14814814814814817,0,0)" xlink:href="#ak"/><use transform="matrix(0.14814814814814817,0,0,0.14814814814814817,38.370370370370374,0)" xlink:href="#ac"/><use transform="matrix(0.14814814814814817,0,0,0.14814814814814817,68,0)" xlink:href="#P"/><use transform="matrix(0.14814814814814817,0,0,0.14814814814814817,85.62962962962965,0)" xlink:href="#al"/><use transform="matrix(0.14814814814814817,0,0,0.14814814814814817,115.25925925925928,0)" xlink:href="#am"/></g><path d="M220-157c-53 9-28 100-34 157h-49v-107c1-27-5-49-29-50C55-147 81-57 75 0H25l-1-190h47c2 12-1 28 3 38 10-53 101-56 108 0 13-22 24-43 59-42 82 1 51 116 57 194h-49v-107c-1-25-5-48-29-50" id="an"/><g id="j"><use transform="matrix(0.14814814814814817,0,0,0.14814814814814817,0,0)" xlink:href="#ai"/><use transform="matrix(0.14814814814814817,0,0,0.14814814814814817,38.370370370370374,0)" xlink:href="#aa"/><use transform="matrix(0.14814814814814817,0,0,0.14814814814814817,70.81481481481482,0)" xlink:href="#Z"/><use transform="matrix(0.14814814814814817,0,0,0.14814814814814817,91.55555555555557,0)" xlink:href="#an"/></g><path d="M240-174c0 40-23 61-54 70L253 0h-59l-57-94H76V0H24v-248c93 4 217-23 216 74zM76-134c48-2 112 12 112-38 0-48-66-32-112-35v73" id="ao"/><path d="M24 0v-248h52v208h133V0H24" id="ap"/><g id="k"><use transform="matrix(0.14814814814814817,0,0,0.14814814814814817,0,0)" xlink:href="#ao"/><use transform="matrix(0.14814814814814817,0,0,0.14814814814814817,38.370370370370374,0)" xlink:href="#Y"/><use transform="matrix(0.14814814814814817,0,0,0.14814814814814817,68,0)" xlink:href="#ap"/><use transform="matrix(0.14814814814814817,0,0,0.14814814814814817,100.44444444444446,0)" xlink:href="#O"/></g><path d="M230 0l2-204L168 0h-37L68-204 70 0H24v-248h70l56 185 57-185h69V0h-46" id="aq"/><g id="l"><use transform="matrix(0.14814814814814817,0,0,0.14814814814814817,0,0)" xlink:href="#aq"/><use transform="matrix(0.14814814814814817,0,0,0.14814814814814817,44.296296296296305,0)" xlink:href="#ac"/><use transform="matrix(0.14814814814814817,0,0,0.14814814814814817,73.92592592592594,0)" xlink:href="#U"/></g><path d="M25 0v-261h50V0H25" id="ar"/><g id="m"><use transform="matrix(0.14814814814814817,0,0,0.14814814814814817,0,0)" xlink:href="#ab"/><use transform="matrix(0.14814814814814817,0,0,0.14814814814814817,35.55555555555556,0)" xlink:href="#aa"/><use transform="matrix(0.14814814814814817,0,0,0.14814814814814817,68,0)" xlink:href="#aa"/><use transform="matrix(0.14814814814814817,0,0,0.14814814814814817,100.44444444444446,0)" xlink:href="#ar"/></g><path d="M128 0H69L1-190h53L99-40l48-150h52" id="as"/><g id="n"><use transform="matrix(0.14814814814814817,0,0,0.14814814814814817,0,0)" xlink:href="#ag"/><use transform="matrix(0.14814814814814817,0,0,0.14814814814814817,38.370370370370374,0)" xlink:href="#aa"/><use transform="matrix(0.14814814814814817,0,0,0.14814814814814817,70.81481481481482,0)" xlink:href="#M"/><use transform="matrix(0.14814814814814817,0,0,0.14814814814814817,103.25925925925927,0)" xlink:href="#as"/></g><path d="M123 10C108 53 80 86 19 72V37c35 8 53-11 59-39L3-190h52l48 148c12-52 28-100 44-148h51" id="at"/><g id="o"><use transform="matrix(0.14814814814814817,0,0,0.14814814814814817,0,0)" xlink:href="#ap"/><use transform="matrix(0.14814814814814817,0,0,0.14814814814814817,32.44444444444445,0)" xlink:href="#ac"/><use transform="matrix(0.14814814814814817,0,0,0.14814814814814817,62.07407407407408,0)" xlink:href="#at"/><use transform="matrix(0.14814814814814817,0,0,0.14814814814814817,91.70370370370371,0)" xlink:href="#Y"/><use transform="matrix(0.14814814814814817,0,0,0.14814814814814817,121.33333333333334,0)" xlink:href="#Z"/></g><use transform="matrix(0.14814814814814817,0,0,0.14814814814814817,0,0)" xlink:href="#R" id="p"/><path d="M182-182c0 78-84 86-111 141h115V0H12c-6-101 99-100 120-180 1-22-12-31-33-32-23 0-32 14-35 34l-49-3c5-45 32-70 84-70 51 0 83 22 83 69" id="au"/><use transform="matrix(0.14814814814814817,0,0,0.14814814814814817,0,0)" xlink:href="#au" id="q"/><g id="r"><use transform="matrix(0.14814814814814817,0,0,0.14814814814814817,0,0)" xlink:href="#S"/><use transform="matrix(0.14814814814814817,0,0,0.14814814814814817,29.629629629629633,0)" xlink:href="#T"/></g><path d="M67-125c0 54 23 88 75 88 28 0 53-7 68-21v-34h-60v-39h108v91C232-14 192 4 140 4 58 4 20-42 15-125 8-236 126-280 215-234c19 10 29 26 37 47l-47 15c-11-23-29-39-63-39-53 1-75 33-75 86" id="av"/><path d="M135-194c52 0 70 43 70 98 0 56-19 99-73 100-30 1-46-15-58-35L72 0H24l1-261h50v104c11-23 29-37 60-37zM114-30c31 0 40-27 40-66 0-37-7-63-39-63s-41 28-41 65c0 36 8 64 40 64" id="aw"/><g id="s"><use transform="matrix(0.14814814814814817,0,0,0.14814814814814817,0,0)" xlink:href="#av"/><use transform="matrix(0.14814814814814817,0,0,0.14814814814814817,41.48148148148149,0)" xlink:href="#ar"/><use transform="matrix(0.14814814814814817,0,0,0.14814814814814817,56.296296296296305,0)" xlink:href="#aa"/><use transform="matrix(0.14814814814814817,0,0,0.14814814814814817,88.74074074074078,0)" xlink:href="#aw"/><use transform="matrix(0.14814814814814817,0,0,0.14814814814814817,121.18518518518522,0)" xlink:href="#ac"/><use transform="matrix(0.14814814814814817,0,0,0.14814814814814817,150.81481481481484,0)" xlink:href="#ar"/></g><path d="M199 0l-22-63H83L61 0H9l90-248h61L250 0h-51zm-33-102l-36-108c-10 38-24 72-36 108h72" id="ax"/><g id="t"><use transform="matrix(0.14814814814814817,0,0,0.14814814814814817,0,0)" xlink:href="#ax"/><use transform="matrix(0.14814814814814817,0,0,0.14814814814814817,36.44444444444445,0)" xlink:href="#as"/><use transform="matrix(0.14814814814814817,0,0,0.14814814814814817,66.07407407407408,0)" xlink:href="#af"/></g><g id="u"><use transform="matrix(0.14814814814814817,0,0,0.14814814814814817,0,0)" xlink:href="#ab"/><use transform="matrix(0.14814814814814817,0,0,0.14814814814814817,35.55555555555556,0)" xlink:href="#aa"/><use transform="matrix(0.14814814814814817,0,0,0.14814814814814817,68,0)" xlink:href="#aa"/><use transform="matrix(0.14814814814814817,0,0,0.14814814814814817,100.44444444444446,0)" xlink:href="#ar"/></g><path d="M137-138c1-29-70-34-71-4 15 46 118 7 119 86 1 83-164 76-172 9l43-7c4 19 20 25 44 25 33 8 57-30 24-41C81-84 22-81 20-136c-2-80 154-74 161-7" id="ay"/><g id="v"><use transform="matrix(0.14814814814814817,0,0,0.14814814814814817,0,0)" xlink:href="#ao"/><use transform="matrix(0.14814814814814817,0,0,0.14814814814814817,38.370370370370374,0)" xlink:href="#Y"/><use transform="matrix(0.14814814814814817,0,0,0.14814814814814817,68,0)" xlink:href="#ay"/><use transform="matrix(0.14814814814814817,0,0,0.14814814814814817,97.62962962962962,0)" xlink:href="#am"/><use transform="matrix(0.14814814814814817,0,0,0.14814814814814817,130.07407407407408,0)" xlink:href="#ac"/><use transform="matrix(0.14814814814814817,0,0,0.14814814814814817,159.7037037037037,0)" xlink:href="#N"/><use transform="matrix(0.14814814814814817,0,0,0.14814814814814817,192.14814814814815,0)" xlink:href="#Y"/></g><path d="M24-248c120-7 223 5 221 122C244-46 201 0 124 0H24v-248zM76-40c74 7 117-18 117-86 0-67-45-88-117-82v168" id="az"/><g id="w"><use transform="matrix(0.12345679012345678,0,0,0.12345679012345678,0,0)" xlink:href="#az"/><use transform="matrix(0.12345679012345678,0,0,0.12345679012345678,31.975308641975307,0)" xlink:href="#Y"/><use transform="matrix(0.12345679012345678,0,0,0.12345679012345678,56.666666666666664,0)" xlink:href="#M"/><use transform="matrix(0.12345679012345678,0,0,0.12345679012345678,83.7037037037037,0)" xlink:href="#ay"/><use transform="matrix(0.12345679012345678,0,0,0.12345679012345678,108.39506172839505,0)" xlink:href="#Y"/></g><path d="M138-131c27 9 52 24 51 61 0 53-36 74-89 74S11-19 11-69c0-35 22-54 51-61-78-25-46-121 38-121 51 0 83 19 83 66 0 30-18 49-45 54zm-38-16c24 0 32-13 32-36 1-23-11-34-32-34-22 0-33 12-32 34 0 22 9 36 32 36zm1 116c27 0 37-17 37-43 0-25-13-39-39-39-24 0-37 15-37 40 0 27 11 42 39 42" id="aA"/><g id="x"><use transform="matrix(0.12345679012345678,0,0,0.12345679012345678,0,0)" xlink:href="#Q"/><use transform="matrix(0.12345679012345678,0,0,0.12345679012345678,14.691358024691358,0)" xlink:href="#R"/><use transform="matrix(0.12345679012345678,0,0,0.12345679012345678,39.382716049382715,0)" xlink:href="#au"/><use transform="matrix(0.12345679012345678,0,0,0.12345679012345678,64.07407407407408,0)" xlink:href="#aA"/></g><g id="y"><use transform="matrix(0.12345679012345678,0,0,0.12345679012345678,0,0)" xlink:href="#O"/><use transform="matrix(0.12345679012345678,0,0,0.12345679012345678,27.037037037037035,0)" xlink:href="#M"/><use transform="matrix(0.12345679012345678,0,0,0.12345679012345678,54.07407407407407,0)" xlink:href="#ae"/><use transform="matrix(0.12345679012345678,0,0,0.12345679012345678,66.41975308641975,0)" xlink:href="#P"/><use transform="matrix(0.12345679012345678,0,0,0.12345679012345678,81.1111111111111,0)" xlink:href="#ay"/><use transform="matrix(0.12345679012345678,0,0,0.12345679012345678,105.80246913580245,0)" xlink:href="#W"/></g><path d="M165-50V0h-47v-50H5v-38l105-160h55v161h33v37h-33zm-47-37l2-116L46-87h72" id="aB"/><g id="z"><use transform="matrix(0.12345679012345678,0,0,0.12345679012345678,0,0)" xlink:href="#Q"/><use transform="matrix(0.12345679012345678,0,0,0.12345679012345678,14.691358024691358,0)" xlink:href="#au"/><use transform="matrix(0.12345679012345678,0,0,0.12345679012345678,39.382716049382715,0)" xlink:href="#T"/><use transform="matrix(0.12345679012345678,0,0,0.12345679012345678,64.07407407407408,0)" xlink:href="#aB"/><use transform="matrix(0.12345679012345678,0,0,0.12345679012345678,88.76543209876543,0)" xlink:href="#aA"/></g><g id="A"><use transform="matrix(0.14814814814814817,0,0,0.14814814814814817,0,0)" xlink:href="#ah"/><use transform="matrix(0.14814814814814817,0,0,0.14814814814814817,41.48148148148149,0)" xlink:href="#O"/><use transform="matrix(0.14814814814814817,0,0,0.14814814814814817,73.92592592592594,0)" xlink:href="#P"/><use transform="matrix(0.14814814814814817,0,0,0.14814814814814817,91.55555555555557,0)" xlink:href="#N"/><use transform="matrix(0.14814814814814817,0,0,0.14814814814814817,124.00000000000003,0)" xlink:href="#O"/><use transform="matrix(0.14814814814814817,0,0,0.14814814814814817,156.44444444444449,0)" xlink:href="#P"/></g><g id="B"><use transform="matrix(0.14814814814814817,0,0,0.14814814814814817,0,0)" xlink:href="#aq"/><use transform="matrix(0.14814814814814817,0,0,0.14814814814814817,44.296296296296305,0)" xlink:href="#O"/><use transform="matrix(0.14814814814814817,0,0,0.14814814814814817,76.74074074074076,0)" xlink:href="#ar"/><use transform="matrix(0.14814814814814817,0,0,0.14814814814814817,91.55555555555557,0)" xlink:href="#P"/><use transform="matrix(0.14814814814814817,0,0,0.14814814814814817,109.1851851851852,0)" xlink:href="#ae"/><use transform="matrix(0.14814814814814817,0,0,0.14814814814814817,124.00000000000003,0)" xlink:href="#N"/><use transform="matrix(0.14814814814814817,0,0,0.14814814814814817,156.44444444444449,0)" xlink:href="#ar"/><use transform="matrix(0.14814814814814817,0,0,0.14814814814814817,171.2592592592593,0)" xlink:href="#at"/></g><g id="C"><use transform="matrix(0.14814814814814817,0,0,0.14814814814814817,0,0)" xlink:href="#ax"/><use transform="matrix(0.14814814814814817,0,0,0.14814814814814817,36.44444444444445,0)" xlink:href="#as"/><use transform="matrix(0.14814814814814817,0,0,0.14814814814814817,66.07407407407408,0)" xlink:href="#af"/></g><g id="D"><use transform="matrix(0.14814814814814817,0,0,0.14814814814814817,0,0)" xlink:href="#az"/><use transform="matrix(0.14814814814814817,0,0,0.14814814814814817,38.370370370370374,0)" xlink:href="#Z"/><use transform="matrix(0.14814814814814817,0,0,0.14814814814814817,59.11111111111111,0)" xlink:href="#aa"/><use transform="matrix(0.14814814814814817,0,0,0.14814814814814817,91.55555555555557,0)" xlink:href="#N"/><use transform="matrix(0.14814814814814817,0,0,0.14814814814814817,124.00000000000003,0)" xlink:href="#aa"/><use transform="matrix(0.14814814814814817,0,0,0.14814814814814817,156.44444444444449,0)" xlink:href="#O"/><use transform="matrix(0.14814814814814817,0,0,0.14814814814814817,188.88888888888894,0)" xlink:href="#P"/></g><g id="E"><use transform="matrix(0.14814814814814817,0,0,0.14814814814814817,0,0)" xlink:href="#az"/><use transform="matrix(0.14814814814814817,0,0,0.14814814814814817,38.370370370370374,0)" xlink:href="#Y"/><use transform="matrix(0.14814814814814817,0,0,0.14814814814814817,68,0)" xlink:href="#M"/><use transform="matrix(0.14814814814814817,0,0,0.14814814814814817,100.44444444444446,0)" xlink:href="#ay"/><use transform="matrix(0.14814814814814817,0,0,0.14814814814814817,130.07407407407408,0)" xlink:href="#Y"/></g><g id="F"><use transform="matrix(0.14814814814814817,0,0,0.14814814814814817,0,0)" xlink:href="#ah"/><use transform="matrix(0.14814814814814817,0,0,0.14814814814814817,41.48148148148149,0)" xlink:href="#O"/><use transform="matrix(0.14814814814814817,0,0,0.14814814814814817,73.92592592592594,0)" xlink:href="#P"/><use transform="matrix(0.14814814814814817,0,0,0.14814814814814817,91.55555555555557,0)" xlink:href="#N"/><use transform="matrix(0.14814814814814817,0,0,0.14814814814814817,124.00000000000003,0)" xlink:href="#O"/><use transform="matrix(0.14814814814814817,0,0,0.14814814814814817,156.44444444444449,0)" xlink:href="#P"/></g><path d="M275 0h-61l-44-196L126 0H64L0-248h53L97-49l45-199h58l43 199 44-199h52" id="aC"/><g id="G"><use transform="matrix(0.1111111111111111,0,0,0.1111111111111111,0,0)" xlink:href="#ao"/><use transform="matrix(0.1111111111111111,0,0,0.1111111111111111,28.777777777777775,0)" xlink:href="#Y"/><use transform="matrix(0.1111111111111111,0,0,0.1111111111111111,51,0)" xlink:href="#ay"/><use transform="matrix(0.1111111111111111,0,0,0.1111111111111111,73.22222222222223,0)" xlink:href="#ai"/><use transform="matrix(0.1111111111111111,0,0,0.1111111111111111,102,0)" xlink:href="#Y"/><use transform="matrix(0.1111111111111111,0,0,0.1111111111111111,124.22222222222224,0)" xlink:href="#P"/><use transform="matrix(0.1111111111111111,0,0,0.1111111111111111,137.44444444444446,0)" xlink:href="#S"/><use transform="matrix(0.1111111111111111,0,0,0.1111111111111111,159.66666666666669,0)" xlink:href="#T"/><use transform="matrix(0.1111111111111111,0,0,0.1111111111111111,181.8888888888889,0)" xlink:href="#Q"/><use transform="matrix(0.1111111111111111,0,0,0.1111111111111111,195.11111111111114,0)" xlink:href="#aC"/><use transform="matrix(0.1111111111111111,0,0,0.1111111111111111,232.44444444444449,0)" xlink:href="#ae"/><use transform="matrix(0.1111111111111111,0,0,0.1111111111111111,243.5555555555556,0)" xlink:href="#P"/><use transform="matrix(0.1111111111111111,0,0,0.1111111111111111,256.77777777777777,0)" xlink:href="#am"/><use transform="matrix(0.1111111111111111,0,0,0.1111111111111111,281.1111111111111,0)" xlink:href="#aa"/><use transform="matrix(0.1111111111111111,0,0,0.1111111111111111,305.4444444444444,0)" xlink:href="#O"/><use transform="matrix(0.1111111111111111,0,0,0.1111111111111111,329.7777777777777,0)" xlink:href="#P"/></g><path d="M136-208V0H84v-208H4v-40h212v40h-80" id="aD"/><g id="H"><use transform="matrix(0.1111111111111111,0,0,0.1111111111111111,0,0)" xlink:href="#aD"/><use transform="matrix(0.1111111111111111,0,0,0.1111111111111111,21.333333333333332,0)" xlink:href="#aa"/><use transform="matrix(0.1111111111111111,0,0,0.1111111111111111,45.666666666666664,0)" xlink:href="#N"/></g><g id="I"><use transform="matrix(0.1111111111111111,0,0,0.1111111111111111,0,0)" xlink:href="#ap"/><use transform="matrix(0.1111111111111111,0,0,0.1111111111111111,24.333333333333332,0)" xlink:href="#ac"/><use transform="matrix(0.1111111111111111,0,0,0.1111111111111111,46.55555555555556,0)" xlink:href="#at"/><use transform="matrix(0.1111111111111111,0,0,0.1111111111111111,68.77777777777777,0)" xlink:href="#Y"/><use transform="matrix(0.1111111111111111,0,0,0.1111111111111111,91,0)" xlink:href="#Z"/><use transform="matrix(0.1111111111111111,0,0,0.1111111111111111,106.55555555555556,0)" xlink:href="#W"/></g><path d="M169-182c-1-43-94-46-97-3 18 66 151 10 154 114 3 95-165 93-204 36-6-8-10-19-12-30l50-8c3 46 112 56 116 5-17-69-150-10-154-114-4-87 153-88 188-35 5 8 8 18 10 28" id="aE"/><path d="M84 4C32 4 15-41 15-95c0-55 18-99 73-99 29 0 47 12 58 34l2-30h48l-1 265h-49V-32C136-9 114 4 84 4zm21-34c32 0 41-29 41-66 0-36-9-64-40-64-33 0-39 30-40 65 0 43 13 65 39 65" id="aF"/><path d="M12 0v-35l95-120H19v-35h142v35L67-36h103V0H12" id="aG"/><g id="J"><use transform="matrix(0.1111111111111111,0,0,0.1111111111111111,0,0)" xlink:href="#aE"/><use transform="matrix(0.1111111111111111,0,0,0.1111111111111111,26.666666666666664,0)" xlink:href="#aF"/><use transform="matrix(0.1111111111111111,0,0,0.1111111111111111,51,0)" xlink:href="#O"/><use transform="matrix(0.1111111111111111,0,0,0.1111111111111111,75.33333333333333,0)" xlink:href="#Y"/><use transform="matrix(0.1111111111111111,0,0,0.1111111111111111,97.55555555555554,0)" xlink:href="#Y"/><use transform="matrix(0.1111111111111111,0,0,0.1111111111111111,119.77777777777777,0)" xlink:href="#aG"/><use transform="matrix(0.1111111111111111,0,0,0.1111111111111111,139.77777777777777,0)" xlink:href="#Y"/></g><path d="M24 0v-248h195v40H76v63h132v40H76v65h150V0H24" id="aH"/><g id="K"><use transform="matrix(0.1111111111111111,0,0,0.1111111111111111,0,0)" xlink:href="#aH"/><use transform="matrix(0.1111111111111111,0,0,0.1111111111111111,26.666666666666664,0)" xlink:href="#U"/><use transform="matrix(0.1111111111111111,0,0,0.1111111111111111,48.888888888888886,0)" xlink:href="#al"/><use transform="matrix(0.1111111111111111,0,0,0.1111111111111111,71.11111111111111,0)" xlink:href="#ae"/><use transform="matrix(0.1111111111111111,0,0,0.1111111111111111,82.22222222222223,0)" xlink:href="#P"/><use transform="matrix(0.1111111111111111,0,0,0.1111111111111111,95.44444444444446,0)" xlink:href="#ac"/><use transform="matrix(0.1111111111111111,0,0,0.1111111111111111,117.66666666666669,0)" xlink:href="#P"/><use transform="matrix(0.1111111111111111,0,0,0.1111111111111111,130.8888888888889,0)" xlink:href="#ae"/><use transform="matrix(0.1111111111111111,0,0,0.1111111111111111,142.00000000000003,0)" xlink:href="#aa"/><use transform="matrix(0.1111111111111111,0,0,0.1111111111111111,166.33333333333337,0)" xlink:href="#M"/></g></defs></g></svg>