<svg xmlns="http://www.w3.org/2000/svg" xmlns:xlink="http://www.w3.org/1999/xlink" xmlns:lucid="lucid" width="8394.3" height="4605.21"><g transform="translate(2545 -4420)" lucid:page-tab-id="0_0"><path d="M-2540 6406a6 6 0 0 1 6-6h1237.28a6 6 0 0 1 6 6v1313a6 6 0 0 1-6 6H-2534a6 6 0 0 1-6-6z" stroke="#000" stroke-width="10" fill-opacity="0"/><path d="M-2349.28 6841a6 6 0 0 1 6-6H-1106a6 6 0 0 1 6 6v1313a6 6 0 0 1-6 6h-1237.28a6 6 0 0 1-6-6z" stroke="#000" stroke-width="10" fill-opacity="0"/><path d="M-2533.42 6406.25l181.05 421.8M-2533.37 6406.37l-2.02-4.7" stroke="#000" stroke-width="10" fill="none"/><path d="M-2345.96 6830.35l-.72.18-1.6.66-1.47.9-1.3 1.1-1.14 1.33-.9 1.47-.52 1.3-.16.06-3.2-7.47 9.14-3.93z" stroke="#000" stroke-width=".05"/><path d="M-1283.73 6410.66l181.15 416.2" stroke="#000" stroke-width="10" fill="none"/><path d="M-1279.12 6408.8l-6.6 2.87v-5.87l-.13-1.52-.3-1.3 3.8-1.64zM-1094.83 6832.2l-3.1 1.35-.28-.34-1.33-1.1-1.47-.9-1.6-.67-1.68-.4-1.52-.13h-.84l-.56-1.28 9.13-3.97z" stroke="#000" stroke-width=".05"/><path d="M-2536.2 7733.74l181.55 421.35" stroke="#000" stroke-width="10" fill="none"/><path d="M-2540.47 7727.9l1.47.9 1.6.67 1.68.4 1.52.13h1.8l.82 1.9-9.14 3.93-3.22-7.47 2.66-1.14zM-2354.16 8155.72l.4 1.68.67 1.6.9 1.48 1.14 1.3.35.32-5.36 2.3-3.2-7.46 5.03-2.18z" stroke="#000" stroke-width=".05"/><path d="M-1288.23 7727.95l184.08 424.97M-1288.18 7728.06l-2.03-4.7M-1104.2 8152.8l2.04 4.7" stroke="#000" stroke-width="10" fill="none"/><path d="M-1080 4864.24a6 6 0 0 1 6-6h215a6 6 0 0 1 6 6v501.07a6 6 0 0 1-6 6h-215a6 6 0 0 1-6-6zM-853 4864.24a6 6 0 0 1 6-6h215.02a6 6 0 0 1 6 6v501.07a6 6 0 0 1-6 6h-215a6 6 0 0 1-6-6zM-625.98 4864.24a6 6 0 0 1 6-6h215a6 6 0 0 1 6 6v501.07a6 6 0 0 1-6 6h-215a6 6 0 0 1-6-6zM-398.97 4864.24a6 6 0 0 1 6-6h215a6 6 0 0 1 6 6v501.07a6 6 0 0 1-6 6h-215a6 6 0 0 1-6-6zM-171.96 4864.24a6 6 0 0 1 6-6H49.06a6 6 0 0 1 6 6v501.07a6 6 0 0 1-6 6h-215.02a6 6 0 0 1-6-6z" stroke="#000" stroke-width="5" fill-opacity="0"/><path d="M55.05 4864.24a6 6 0 0 1 6-6h215.02a6 6 0 0 1 6 6v501.07a6 6 0 0 1-6 6h-215a6 6 0 0 1-6.02-6zM282.07 4864.24a6 6 0 0 1 6-6h215a6 6 0 0 1 6 6v501.07a6 6 0 0 1-6 6h-215a6 6 0 0 1-6-6zM509.08 4864.24a6 6 0 0 1 6-6h215a6 6 0 0 1 6 6v501.07a6 6 0 0 1-6 6h-215a6 6 0 0 1-6-6z" stroke="#000" stroke-width="5" fill-opacity="0"/><path d="M1900 4864.24a6 6 0 0 1 6-6h216a6 6 0 0 1 6 6v500.2a6 6 0 0 1-6 6h-216a6 6 0 0 1-6-6z" stroke="#000" stroke-width="5" fill="#851919"/><path d="M2128 4864.24a6 6 0 0 1 6-6h215.97a6 6 0 0 1 6 6v500.2a6 6 0 0 1-6 6H2134a6 6 0 0 1-6-6z" stroke="#000" stroke-width="5" fill="#e81313"/><path d="M2355.97 4864.24a6 6 0 0 1 6-6h216a6 6 0 0 1 6 6v500.2a6 6 0 0 1-6 6h-216a6 6 0 0 1-6-6z" stroke="#000" stroke-width="5" fill="#fc9432"/><path d="M2583.96 4864.24a6 6 0 0 1 6-6h215.98a6 6 0 0 1 6 6v500.2a6 6 0 0 1-6 6h-215.98a6 6 0 0 1-6-6z" stroke="#000" stroke-width="5" fill="#ffe342"/><path d="M2811.94 4864.24a6 6 0 0 1 6-6h216a6 6 0 0 1 6 6v500.2a6 6 0 0 1-6 6h-216a6 6 0 0 1-6-6z" stroke="#000" stroke-width="5" fill="#ffdda6"/><path d="M3039.93 4864.24a6 6 0 0 1 6-6h215.98a6 6 0 0 1 6 6v500.2a6 6 0 0 1-6 6h-215.97a6 6 0 0 1-6-6z" stroke="#000" stroke-width="5" fill="#851919"/><path d="M3267.9 4864.24a6 6 0 0 1 6-6h216a6 6 0 0 1 6 6v500.2a6 6 0 0 1-6 6h-216a6 6 0 0 1-6-6z" stroke="#000" stroke-width="5" fill="#e81313"/><path d="M3495.9 4864.24a6 6 0 0 1 6-6h216a6 6 0 0 1 6 6v500.2a6 6 0 0 1-6 6h-216a6 6 0 0 1-6-6z" stroke="#000" stroke-width="5" fill="#fc9432"/><path d="M3860 6386a6 6 0 0 1 6-6h1184.5a6 6 0 0 1 6 6v1180.8a6 6 0 0 1-6 6H3866a6 6 0 0 1-6-6z" stroke="#000" stroke-width="10" fill="#851919"/><path d="M3956.02 6497.08a6 6 0 0 1 6-6h1184.5a6 6 0 0 1 6 6v1180.8a6 6 0 0 1-6 6H3962a6 6 0 0 1-6-6z" stroke="#000" stroke-width="10" fill="#cc4e00"/><path d="M4054.6 6616.85a6 6 0 0 1 6-6h1184.5a6 6 0 0 1 6 6v1180.8a6 6 0 0 1-6 6H4060.6a6 6 0 0 1-6-6z" stroke="#000" stroke-width="10" fill="#fc9432"/><path d="M4167.92 6719.55a6 6 0 0 1 6-6h1184.5a6 6 0 0 1 6 6v1180.8a6 6 0 0 1-6 6H4173.9a6 6 0 0 1-6-6z" stroke="#000" stroke-width="10" fill="#d916a8"/><path d="M4263.94 6830.63a6 6 0 0 1 6-6h1184.5a6 6 0 0 1 6 6v1180.8a6 6 0 0 1-6 6h-1184.5a6 6 0 0 1-6-6z" stroke="#000" stroke-width="10" fill="#e81313"/><path d="M4362.53 6950.4a6 6 0 0 1 6-6h1184.5a6 6 0 0 1 6 6v1180.78a6 6 0 0 1-6 6h-1184.5a6 6 0 0 1-6-6z" stroke="#000" stroke-width="10" fill="#ba23f6"/><path d="M4440.4 7036.73a6 6 0 0 1 6-6h1184.5a6 6 0 0 1 6 6v1180.8a6 6 0 0 1-6 6H4446.4a6 6 0 0 1-6-6z" stroke="#000" stroke-width="10" fill="#f4d9ff"/><path d="M4536.43 7147.8a6 6 0 0 1 6-6h1184.5a6 6 0 0 1 6 6v1180.8a6 6 0 0 1-6 6h-1184.5a6 6 0 0 1-6-6z" stroke="#000" stroke-width="10" fill="#dedeff"/><path d="M4635.02 7267.58a6 6 0 0 1 6-6h1184.5a6 6 0 0 1 6 6v1180.8a6 6 0 0 1-6 6H4641a6 6 0 0 1-6-6z" stroke="#000" stroke-width="10" fill="#cc4e00"/><path d="M3148.42 6976.4c0 273.1-198.88 494.5-444.2 494.5-245.34 0-444.22-221.4-444.22-494.5s198.88-494.5 444.2-494.5c245.34 0 444.22 221.4 444.22 494.5z" stroke="#000" stroke-width="10" fill-opacity="0"/><path d="M-2520 5926a6 6 0 0 1 6-6h1428a6 6 0 0 1 6 6v648a6 6 0 0 1-6 6h-1428a6 6 0 0 1-6-6z" fill="none"/><use xlink:href="#a" transform="matrix(1,0,0,1,-2515,5925) translate(0 367.6666666666667)"/><use xlink:href="#b" transform="matrix(1,0,0,1,-2515,5925) translate(283.2592592592593 367.6666666666667)"/><use xlink:href="#c" transform="matrix(1,0,0,1,-2515,5925) translate(461.03703703703707 367.6666666666667)"/><use xlink:href="#d" transform="matrix(1,0,0,1,-2515,5925) translate(721.1851851851852 367.6666666666667)"/><use xlink:href="#e" transform="matrix(1,0,0,1,-2515,5925) translate(898.962962962963 367.6666666666667)"/><path d="M2540 6326a6 6 0 0 1 6-6h1817.54a6 6 0 0 1 6 6v1868.58a6 6 0 0 1-6 6H2546a6 6 0 0 1-6-6z" fill="none"/><use xlink:href="#f" transform="matrix(1,0,0,1,2545.0000000000005,6325) translate(0 1113.2777777777778)"/><path d="M-820 4426a6 6 0 0 1 6-6H714.94a6 6 0 0 1 6 6v548a6 6 0 0 1-6 6H-814a6 6 0 0 1-6-6z" fill="none"/><use xlink:href="#g" transform="matrix(1,0,0,1,-815,4425) translate(0 323.8888888888889)"/><use xlink:href="#h" transform="matrix(1,0,0,1,-815,4425) translate(284.50617283950623 323.8888888888889)"/><use xlink:href="#i" transform="matrix(1,0,0,1,-815,4425) translate(488.20987654320993 323.8888888888889)"/><use xlink:href="#j" transform="matrix(1,0,0,1,-815,4425) translate(691.9135802469136 323.8888888888889)"/><use xlink:href="#k" transform="matrix(1,0,0,1,-815,4425) translate(895.6172839506173 323.8888888888889)"/><path d="M820 4766a6 6 0 0 1 6-6h919.5a6 6 0 0 1 6 6v254a6 6 0 0 1-6 6H826a6 6 0 0 1-6-6z" fill="none"/><use xlink:href="#l" transform="matrix(1,0,0,1,825,4765) translate(0 171.16666666666669)"/><path d="M-338.9 7606a6 6 0 0 1 6-6H670.02a6 6 0 0 1 6 6v264.68a6 6 0 0 1-6 6H-332.9a6 6 0 0 1-6-6z" fill="none"/><use xlink:href="#m" transform="matrix(1,0,0,1,-333.9137356644501,7605) translate(0 177.94444444444446)"/><path d="M2313.62 7606a6 6 0 0 1 6-6h756.66a6 6 0 0 1 6 6v264.68a6 6 0 0 1-6 6h-756.66a6 6 0 0 1-6-6z" fill="none"/><use xlink:href="#n" transform="matrix(1,0,0,1,2318.6237980943447,7605) translate(0 177.94444444444446)"/><path d="M-2200 8506a6 6 0 0 1 6-6h964.23a6 6 0 0 1 6 6v382a6 6 0 0 1-6 6H-2194a6 6 0 0 1-6-6z" fill="none"/><use xlink:href="#o" transform="matrix(1,0,0,1,-2195,8505) translate(0.38888888888891415 128.5)"/><use xlink:href="#p" transform="matrix(1,0,0,1,-2195,8505) translate(390.1666666666667 128.5)"/><use xlink:href="#q" transform="matrix(1,0,0,1,-2195,8505) translate(323.94444444444446 320.5)"/><path d="M4700 8506a6 6 0 0 1 6-6h1137.3a6 6 0 0 1 6 6v513.2a6 6 0 0 1-6 6H4706a6 6 0 0 1-6-6z" fill="none"/><use xlink:href="#r" transform="matrix(1,0,0,1,4705,8505) translate(308.8888888888889 194)"/><use xlink:href="#s" transform="matrix(1,0,0,1,4705,8505) translate(100 386)"/><use xlink:href="#t" transform="matrix(1,0,0,1,4705,8505) translate(720.8888888888889 386)"/><path d="M3158.42 6976.4h632.6" stroke="#000" stroke-width="10" fill="none"/><path d="M3158.55 6981.37h-5.23l.1-4.95-.05-5h5.18z" stroke="#000" stroke-width=".05"/><path d="M3838.82 6976.4l-42.8 13.9v-27.8z" stroke="#000" stroke-width="10"/><path d="M-1090 7030.73h3283.72" stroke="#3a414a" stroke-width="10" fill="none"/><path d="M-1089.87 7035.7h-5.13v-9.94h5.13z" stroke="#3a414a" stroke-width=".05" fill="#3a414a"/><path d="M2241.52 7030.73l-42.8 13.9v-27.8z" stroke="#3a414a" stroke-width="10" fill="#3a414a"/><path d="M2697.95 5377.93v1035.05" stroke="#3a414a" stroke-width="10" fill="none"/><path d="M2702.93 5378.06h-9.95v-5.13h9.95z" stroke="#3a414a" stroke-width=".05" fill="#3a414a"/><path d="M2697.95 6460.77l-13.9-42.8h27.8z" stroke="#3a414a" stroke-width="10" fill="#3a414a"/><path d="M743.6 5114.78H1833.5" stroke="#3a414a" stroke-width="10" fill="none"/><path d="M743.72 5119.75h-5.13v-9.95h5.12z" stroke="#3a414a" stroke-width=".05" fill="#3a414a"/><path d="M1881.32 5114.78l-42.8 13.9v-27.8z" stroke="#3a414a" stroke-width="10" fill="#3a414a"/><path d="M3860 5886a6 6 0 0 1 6-6h1428a6 6 0 0 1 6 6v648a6 6 0 0 1-6 6H3866a6 6 0 0 1-6-6z" fill="none"/><g><use xlink:href="#a" transform="matrix(1,0,0,1,3865,5885) translate(0 367.6666666666667)"/><use xlink:href="#b" transform="matrix(1,0,0,1,3865,5885) translate(283.2592592592593 367.6666666666667)"/><use xlink:href="#c" transform="matrix(1,0,0,1,3865,5885) translate(461.03703703703707 367.6666666666667)"/><use xlink:href="#d" transform="matrix(1,0,0,1,3865,5885) translate(721.1851851851852 367.6666666666667)"/><use xlink:href="#e" transform="matrix(1,0,0,1,3865,5885) translate(898.962962962963 367.6666666666667)"/></g><path d="M2180 4446a6 6 0 0 1 6-6h1528.94a6 6 0 0 1 6 6v548a6 6 0 0 1-6 6H2186a6 6 0 0 1-6-6z" fill="none"/><g><use xlink:href="#g" transform="matrix(1,0,0,1,2185,4445) translate(0 323.8888888888889)"/><use xlink:href="#h" transform="matrix(1,0,0,1,2185,4445) translate(284.50617283950623 323.8888888888889)"/><use xlink:href="#i" transform="matrix(1,0,0,1,2185,4445) translate(488.20987654320993 323.8888888888889)"/><use xlink:href="#j" transform="matrix(1,0,0,1,2185,4445) translate(691.9135802469136 323.8888888888889)"/><use xlink:href="#k" transform="matrix(1,0,0,1,2185,4445) translate(895.6172839506173 323.8888888888889)"/></g><path d="M-122.82 7025.73V5437.8M-122.82 7025.6v5.13" stroke="#000" stroke-width="10" fill="none"/><path d="M-122.82 5390l13.9 42.8h-27.8z" stroke="#000" stroke-width="10"/><defs><path d="M67-93c0 74 22 123 53 168H70C40 30 18-18 18-93s22-123 52-168h50c-32 44-53 94-53 168" id="u"/><path d="M186 0v-106H76V0H24v-248h52v99h110v-99h50V0h-50" id="v"/><g id="a"><use transform="matrix(0.5925925925925927,0,0,0.5925925925925927,0,0)" xlink:href="#u"/><use transform="matrix(0.5925925925925927,0,0,0.5925925925925927,70.51851851851853,0)" xlink:href="#v"/></g><path d="M144 0l-44-69L55 0H2l70-98-66-92h53l41 62 40-62h54l-67 91 71 99h-54" id="w"/><use transform="matrix(0.5925925925925927,0,0,0.5925925925925927,0,0)" xlink:href="#w" id="b"/><path d="M275 0h-61l-44-196L126 0H64L0-248h53L97-49l45-199h58l43 199 44-199h52" id="x"/><use transform="matrix(0.5925925925925927,0,0,0.5925925925925927,0,0)" xlink:href="#x" id="c"/><use transform="matrix(0.5925925925925927,0,0,0.5925925925925927,0,0)" xlink:href="#w" id="d"/><path d="M67-125c0 53 21 87 73 88 37 1 54-22 65-47l45 17C233-25 199 4 140 4 58 4 20-42 15-125 8-235 124-281 211-232c18 10 29 29 36 50l-46 12c-8-25-30-41-62-41-52 0-71 34-72 86" id="y"/><path d="M102-93c0 74-22 123-52 168H0C30 29 54-18 53-93c0-74-22-123-53-168h50c30 45 52 94 52 168" id="z"/><g id="e"><use transform="matrix(0.5925925925925927,0,0,0.5925925925925927,0,0)" xlink:href="#y"/><use transform="matrix(0.5925925925925927,0,0,0.5925925925925927,153.4814814814815,0)" xlink:href="#z"/></g><path d="M80-196l47-18 7 23-49 13 32 44-20 13-27-46-27 45-21-12 33-44-49-13 8-23 47 19-2-53h23" id="A"/><use transform="matrix(2.4691358024691357,0,0,2.4691358024691357,0,0)" xlink:href="#A" id="f"/><path d="M23 0v-37h61v-169l-59 37v-38l62-41h46v211h57V0H23" id="B"/><g id="g"><use transform="matrix(0.6790123456790124,0,0,0.6790123456790124,0,0)" xlink:href="#u"/><use transform="matrix(0.6790123456790124,0,0,0.6790123456790124,80.80246913580247,0)" xlink:href="#B"/></g><use transform="matrix(0.6790123456790124,0,0,0.6790123456790124,0,0)" xlink:href="#w" id="h"/><use transform="matrix(0.6790123456790124,0,0,0.6790123456790124,0,0)" xlink:href="#B" id="i"/><use transform="matrix(0.6790123456790124,0,0,0.6790123456790124,0,0)" xlink:href="#w" id="j"/><g id="k"><use transform="matrix(0.6790123456790124,0,0,0.6790123456790124,0,0)" xlink:href="#y"/><use transform="matrix(0.6790123456790124,0,0,0.6790123456790124,175.8641975308642,0)" xlink:href="#z"/></g><path d="M110-194c64 0 96 36 96 99 0 64-35 99-97 99-61 0-95-36-95-99 0-62 34-99 96-99zm-1 164c35 0 45-28 45-65 0-40-10-65-43-65-34 0-45 26-45 65 0 36 10 65 43 65" id="C"/><path d="M220-157c-53 9-28 100-34 157h-49v-107c1-27-5-49-29-50C55-147 81-57 75 0H25l-1-190h47c2 12-1 28 3 38 10-53 101-56 108 0 13-22 24-43 59-42 82 1 51 116 57 194h-49v-107c-1-25-5-48-29-50" id="D"/><path d="M135-194c53 0 70 44 70 98 0 56-19 98-73 100-31 1-45-17-59-34 3 33 2 69 2 105H25l-1-265h48c2 10 0 23 3 31 11-24 29-35 60-35zM114-30c33 0 39-31 40-66 0-38-9-64-40-64-56 0-55 130 0 130" id="E"/><path d="M85 4C-2 5 27-109 22-190h50c7 57-23 150 33 157 60-5 35-97 40-157h50l1 190h-47c-2-12 1-28-3-38-12 25-28 42-61 42" id="F"/><path d="M115-3C79 11 28 4 28-45v-112H4v-33h27l15-45h31v45h36v33H77v99c-1 23 16 31 38 25v30" id="G"/><path d="M185-48c-13 30-37 53-82 52C43 2 14-33 14-96s30-98 90-98c62 0 83 45 84 108H66c0 31 8 55 39 56 18 0 30-7 34-22zm-45-69c5-46-57-63-70-21-2 6-4 13-4 21h74" id="H"/><g id="l"><use transform="matrix(0.5925925925925927,0,0,0.5925925925925927,0,0)" xlink:href="#y"/><use transform="matrix(0.5925925925925927,0,0,0.5925925925925927,153.4814814814815,0)" xlink:href="#C"/><use transform="matrix(0.5925925925925927,0,0,0.5925925925925927,283.2592592592593,0)" xlink:href="#D"/><use transform="matrix(0.5925925925925927,0,0,0.5925925925925927,472.88888888888886,0)" xlink:href="#E"/><use transform="matrix(0.5925925925925927,0,0,0.5925925925925927,602.6666666666667,0)" xlink:href="#F"/><use transform="matrix(0.5925925925925927,0,0,0.5925925925925927,732.4444444444446,0)" xlink:href="#G"/><use transform="matrix(0.5925925925925927,0,0,0.5925925925925927,802.962962962963,0)" xlink:href="#H"/></g><path d="M62-158H24l-5-90h48" id="I"/><path d="M169-182c-1-43-94-46-97-3 18 66 151 10 154 114 3 95-165 93-204 36-6-8-10-19-12-30l50-8c3 46 112 56 116 5-17-69-150-10-154-114-4-87 153-88 188-35 5 8 8 18 10 28" id="J"/><path d="M84 4C32 4 15-41 15-95c0-55 18-99 73-99 29 0 47 12 58 34l2-30h48l-1 265h-49V-32C136-9 114 4 84 4zm21-34c32 0 41-29 41-66 0-36-9-64-40-64-33 0-39 30-40 65 0 43 13 65 39 65" id="K"/><path d="M12 0v-35l95-120H19v-35h142v35L67-36h103V0H12" id="L"/><g id="m"><use transform="matrix(0.6172839506172839,0,0,0.6172839506172839,0,0)" xlink:href="#I"/><use transform="matrix(0.6172839506172839,0,0,0.6172839506172839,52.46913580246913,0)" xlink:href="#J"/><use transform="matrix(0.6172839506172839,0,0,0.6172839506172839,200.61728395061732,0)" xlink:href="#K"/><use transform="matrix(0.6172839506172839,0,0,0.6172839506172839,335.8024691358024,0)" xlink:href="#F"/><use transform="matrix(0.6172839506172839,0,0,0.6172839506172839,470.98765432098764,0)" xlink:href="#H"/><use transform="matrix(0.6172839506172839,0,0,0.6172839506172839,594.4444444444445,0)" xlink:href="#H"/><use transform="matrix(0.6172839506172839,0,0,0.6172839506172839,717.9012345679014,0)" xlink:href="#L"/><use transform="matrix(0.6172839506172839,0,0,0.6172839506172839,829.0123456790124,0)" xlink:href="#H"/><use transform="matrix(0.6172839506172839,0,0,0.6172839506172839,952.4691358024692,0)" xlink:href="#I"/></g><path d="M24 0v-248h195v40H76v63h132v40H76v65h150V0H24" id="M"/><path d="M190-63c-7 42-38 67-86 67-59 0-84-38-90-98-12-110 154-137 174-36l-49 2c-2-19-15-32-35-32-30 0-35 28-38 64-6 74 65 87 74 30" id="N"/><path d="M25-224v-37h50v37H25zM25 0v-190h50V0H25" id="O"/><g id="n"><use transform="matrix(0.6172839506172839,0,0,0.6172839506172839,0,0)" xlink:href="#I"/><use transform="matrix(0.6172839506172839,0,0,0.6172839506172839,52.46913580246913,0)" xlink:href="#M"/><use transform="matrix(0.6172839506172839,0,0,0.6172839506172839,200.61728395061732,0)" xlink:href="#w"/><use transform="matrix(0.6172839506172839,0,0,0.6172839506172839,324.0740740740741,0)" xlink:href="#N"/><use transform="matrix(0.6172839506172839,0,0,0.6172839506172839,447.53086419753083,0)" xlink:href="#O"/><use transform="matrix(0.6172839506172839,0,0,0.6172839506172839,509.25925925925924,0)" xlink:href="#G"/><use transform="matrix(0.6172839506172839,0,0,0.6172839506172839,582.716049382716,0)" xlink:href="#H"/><use transform="matrix(0.6172839506172839,0,0,0.6172839506172839,706.1728395061727,0)" xlink:href="#I"/></g><path d="M175 0L67-191c6 58 2 128 3 191H24v-248h59L193-55c-6-58-2-129-3-193h46V0h-61" id="P"/><g id="o"><use transform="matrix(0.4444444444444444,0,0,0.4444444444444444,0,0)" xlink:href="#y"/><use transform="matrix(0.4444444444444444,0,0,0.4444444444444444,115.1111111111111,0)" xlink:href="#P"/><use transform="matrix(0.4444444444444444,0,0,0.4444444444444444,230.2222222222222,0)" xlink:href="#P"/></g><path d="M76-208v77h127v40H76V0H24v-248h183v40H76" id="Q"/><path d="M133-34C117-15 103 5 69 4 32 3 11-16 11-54c-1-60 55-63 116-61 1-26-3-47-28-47-18 1-26 9-28 27l-52-2c7-38 36-58 82-57s74 22 75 68l1 82c-1 14 12 18 25 15v27c-30 8-71 5-69-32zm-48 3c29 0 43-24 42-57-32 0-66-3-65 30 0 17 8 27 23 27" id="R"/><path d="M135-150c-39-12-60 13-60 57V0H25l-1-190h47c2 13-1 29 3 40 6-28 27-53 61-41v41" id="S"/><g id="p"><use transform="matrix(0.4444444444444444,0,0,0.4444444444444444,0,0)" xlink:href="#Q"/><use transform="matrix(0.4444444444444444,0,0,0.4444444444444444,97.33333333333333,0)" xlink:href="#H"/><use transform="matrix(0.4444444444444444,0,0,0.4444444444444444,186.22222222222223,0)" xlink:href="#R"/><use transform="matrix(0.4444444444444444,0,0,0.4444444444444444,275.1111111111111,0)" xlink:href="#G"/><use transform="matrix(0.4444444444444444,0,0,0.4444444444444444,328,0)" xlink:href="#F"/><use transform="matrix(0.4444444444444444,0,0,0.4444444444444444,425.3333333333333,0)" xlink:href="#S"/><use transform="matrix(0.4444444444444444,0,0,0.4444444444444444,487.55555555555554,0)" xlink:href="#H"/></g><path d="M230 0l2-204L168 0h-37L68-204 70 0H24v-248h70l56 185 57-185h69V0h-46" id="T"/><g id="q"><use transform="matrix(0.4444444444444444,0,0,0.4444444444444444,0,0)" xlink:href="#T"/><use transform="matrix(0.4444444444444444,0,0,0.4444444444444444,132.88888888888889,0)" xlink:href="#R"/><use transform="matrix(0.4444444444444444,0,0,0.4444444444444444,221.77777777777777,0)" xlink:href="#E"/></g><path d="M140-251c80 0 125 45 125 126S219 4 139 4C58 4 15-44 15-125s44-126 125-126zm-1 214c52 0 73-35 73-88 0-50-21-86-72-86-52 0-73 35-73 86s22 88 72 88" id="U"/><g id="r"><use transform="matrix(0.4444444444444444,0,0,0.4444444444444444,0,0)" xlink:href="#U"/><use transform="matrix(0.4444444444444444,0,0,0.4444444444444444,124.44444444444444,0)" xlink:href="#F"/><use transform="matrix(0.4444444444444444,0,0,0.4444444444444444,221.77777777777777,0)" xlink:href="#G"/><use transform="matrix(0.4444444444444444,0,0,0.4444444444444444,274.66666666666663,0)" xlink:href="#E"/><use transform="matrix(0.4444444444444444,0,0,0.4444444444444444,371.99999999999994,0)" xlink:href="#F"/><use transform="matrix(0.4444444444444444,0,0,0.4444444444444444,469.3333333333333,0)" xlink:href="#G"/></g><g id="s"><use transform="matrix(0.4444444444444444,0,0,0.4444444444444444,0,0)" xlink:href="#Q"/><use transform="matrix(0.4444444444444444,0,0,0.4444444444444444,97.33333333333333,0)" xlink:href="#H"/><use transform="matrix(0.4444444444444444,0,0,0.4444444444444444,186.22222222222223,0)" xlink:href="#R"/><use transform="matrix(0.4444444444444444,0,0,0.4444444444444444,275.1111111111111,0)" xlink:href="#G"/><use transform="matrix(0.4444444444444444,0,0,0.4444444444444444,328,0)" xlink:href="#F"/><use transform="matrix(0.4444444444444444,0,0,0.4444444444444444,425.3333333333333,0)" xlink:href="#S"/><use transform="matrix(0.4444444444444444,0,0,0.4444444444444444,487.55555555555554,0)" xlink:href="#H"/></g><g id="t"><use transform="matrix(0.4444444444444444,0,0,0.4444444444444444,0,0)" xlink:href="#T"/><use transform="matrix(0.4444444444444444,0,0,0.4444444444444444,132.88888888888889,0)" xlink:href="#R"/><use transform="matrix(0.4444444444444444,0,0,0.4444444444444444,221.77777777777777,0)" xlink:href="#E"/></g></defs></g></svg>